<?xml version="1.0" encoding="UTF-8" standalone="no"?>
<!-- Created with Inkscape (http://www.inkscape.org/) -->

<svg
   xmlns:dc="http://purl.org/dc/elements/1.1/"
   xmlns:cc="http://creativecommons.org/ns#"
   xmlns:rdf="http://www.w3.org/1999/02/22-rdf-syntax-ns#"
   xmlns:svg="http://www.w3.org/2000/svg"
   xmlns="http://www.w3.org/2000/svg"
   xmlns:xlink="http://www.w3.org/1999/xlink"
   xmlns:sodipodi="http://sodipodi.sourceforge.net/DTD/sodipodi-0.dtd"
   xmlns:inkscape="http://www.inkscape.org/namespaces/inkscape"
   width="210mm"
   height="297mm"
   id="svg2"
   version="1.1"
   inkscape:version="0.48.5 r10040"
   sodipodi:docname="pyday2016.svg"
   inkscape:export-filename="/home/davidh/Escritorio/pyday2016.png"
   inkscape:export-xdpi="300.01077"
   inkscape:export-ydpi="300.01077">
  <title
     id="title3429">Afiche PyTatuy2016</title>
  <defs
     id="defs4">
    <radialGradient
       r="29.036913"
       fy="132.28575"
       fx="61.518883"
       cy="132.28575"
       cx="61.518883"
       gradientTransform="matrix(2.382716e-8,-0.296405,1.43676,4.683673e-7,-128.544,150.5202)"
       gradientUnits="userSpaceOnUse"
       id="radialGradient1480"
       xlink:href="#linearGradient2795"
       inkscape:collect="always" />
    <linearGradient
       y2="114.39767"
       x2="135.66525"
       y1="20.603781"
       x1="26.648937"
       gradientTransform="matrix(0.562541,0,0,0.567972,-9.399749,-5.305317)"
       gradientUnits="userSpaceOnUse"
       id="linearGradient1478"
       xlink:href="#linearGradient4689"
       inkscape:collect="always" />
    <linearGradient
       y2="137.27299"
       x2="112.03144"
       y1="192.35176"
       x1="150.96111"
       gradientTransform="matrix(0.562541,0,0,0.567972,-9.399749,-5.305317)"
       gradientUnits="userSpaceOnUse"
       id="linearGradient1475"
       xlink:href="#linearGradient4671"
       inkscape:collect="always" />
    <radialGradient
       gradientUnits="userSpaceOnUse"
       gradientTransform="matrix(1,0,0,0.177966,0,108.7434)"
       r="29.036913"
       fy="132.28575"
       fx="61.518883"
       cy="132.28575"
       cx="61.518883"
       id="radialGradient2801"
       xlink:href="#linearGradient2795"
       inkscape:collect="always" />
    <linearGradient
       y2="76.313133"
       x2="26.670298"
       y1="76.176224"
       x1="172.94208"
       gradientTransform="matrix(0.562541,0,0,0.567972,-11.5974,-7.60954)"
       gradientUnits="userSpaceOnUse"
       id="linearGradient2258"
       xlink:href="#linearGradient4689"
       inkscape:collect="always" />
    <linearGradient
       y2="144.75717"
       x2="-65.308502"
       y1="144.75717"
       x1="224.23996"
       gradientTransform="matrix(0.562541,0,0,0.567972,-11.5974,-7.60954)"
       gradientUnits="userSpaceOnUse"
       id="linearGradient2255"
       xlink:href="#linearGradient4671"
       inkscape:collect="always" />
    <linearGradient
       y2="144.75717"
       x2="-65.308502"
       y1="144.75717"
       x1="224.23996"
       gradientTransform="translate(100.2702,99.61116)"
       gradientUnits="userSpaceOnUse"
       id="linearGradient2250"
       xlink:href="#linearGradient4671"
       inkscape:collect="always" />
    <linearGradient
       y2="76.313133"
       x2="26.670298"
       y1="77.475983"
       x1="172.94208"
       gradientTransform="translate(100.2702,99.61116)"
       gradientUnits="userSpaceOnUse"
       id="linearGradient2248"
       xlink:href="#linearGradient4689"
       inkscape:collect="always" />
    <linearGradient
       y2="144.75717"
       x2="-65.308502"
       y1="144.75717"
       x1="224.23996"
       gradientTransform="translate(100.2702,99.61116)"
       gradientUnits="userSpaceOnUse"
       id="linearGradient2589"
       xlink:href="#linearGradient4671"
       inkscape:collect="always" />
    <linearGradient
       y2="76.313133"
       x2="26.670298"
       y1="77.475983"
       x1="172.94208"
       gradientTransform="translate(100.2702,99.61116)"
       gradientUnits="userSpaceOnUse"
       id="linearGradient2587"
       xlink:href="#linearGradient4689"
       inkscape:collect="always" />
    <linearGradient
       gradientTransform="translate(100.2702,99.61116)"
       gradientUnits="userSpaceOnUse"
       xlink:href="#linearGradient4689"
       id="linearGradient2990"
       y2="76.313133"
       x2="26.670298"
       y1="77.475983"
       x1="172.94208" />
    <linearGradient
       gradientTransform="translate(100.2702,99.61116)"
       gradientUnits="userSpaceOnUse"
       xlink:href="#linearGradient4671"
       id="linearGradient2987"
       y2="144.75717"
       x2="-65.308502"
       y1="144.75717"
       x1="224.23996" />
    <linearGradient
       id="linearGradient4689">
      <stop
         id="stop4691"
         offset="0"
         style="stop-color:#5a9fd4;stop-opacity:1;" />
      <stop
         id="stop4693"
         offset="1"
         style="stop-color:#306998;stop-opacity:1;" />
    </linearGradient>
    <linearGradient
       id="linearGradient4671">
      <stop
         id="stop4673"
         offset="0"
         style="stop-color:#ffd43b;stop-opacity:1;" />
      <stop
         id="stop4675"
         offset="1"
         style="stop-color:#ffe873;stop-opacity:1" />
    </linearGradient>
    <linearGradient
       id="linearGradient3236">
      <stop
         id="stop3244"
         offset="0"
         style="stop-color:#f4f4f4;stop-opacity:1" />
      <stop
         id="stop3240"
         offset="1"
         style="stop-color:white;stop-opacity:1" />
    </linearGradient>
    <linearGradient
       id="linearGradient3676">
      <stop
         id="stop3678"
         offset="0"
         style="stop-color:#b2b2b2;stop-opacity:0.5;" />
      <stop
         id="stop3680"
         offset="1"
         style="stop-color:#b3b3b3;stop-opacity:0;" />
    </linearGradient>
    <linearGradient
       id="linearGradient2787">
      <stop
         id="stop2789"
         offset="0"
         style="stop-color:#7f7f7f;stop-opacity:0.5;" />
      <stop
         id="stop2791"
         offset="1"
         style="stop-color:#7f7f7f;stop-opacity:0;" />
    </linearGradient>
    <linearGradient
       id="linearGradient2795">
      <stop
         id="stop2797"
         offset="0"
         style="stop-color:#b8b8b8;stop-opacity:0.49803922;" />
      <stop
         id="stop2799"
         offset="1"
         style="stop-color:#7f7f7f;stop-opacity:0;" />
    </linearGradient>
    <linearGradient
       inkscape:collect="always"
       xlink:href="#linearGradient4689"
       id="linearGradient3155"
       gradientUnits="userSpaceOnUse"
       gradientTransform="matrix(0.562541,0,0,0.567972,78.606431,497.83049)"
       x1="26.648937"
       y1="20.603781"
       x2="135.66525"
       y2="114.39767" />
    <linearGradient
       inkscape:collect="always"
       xlink:href="#linearGradient4671"
       id="linearGradient3157"
       gradientUnits="userSpaceOnUse"
       gradientTransform="matrix(0.562541,0,0,0.567972,78.606431,497.83049)"
       x1="150.96111"
       y1="192.35176"
       x2="112.03144"
       y2="137.27299" />
    <linearGradient
       inkscape:collect="always"
       xlink:href="#linearGradient4689"
       id="linearGradient4011"
       gradientUnits="userSpaceOnUse"
       gradientTransform="matrix(0.562541,0,0,0.567972,-9.399749,-5.305317)"
       x1="26.648937"
       y1="20.603781"
       x2="135.66525"
       y2="114.39767" />
    <linearGradient
       inkscape:collect="always"
       xlink:href="#linearGradient4671"
       id="linearGradient4013"
       gradientUnits="userSpaceOnUse"
       gradientTransform="matrix(0.562541,0,0,0.567972,-9.399749,-5.305317)"
       x1="150.96111"
       y1="192.35176"
       x2="112.03144"
       y2="137.27299" />
    <radialGradient
       inkscape:collect="always"
       xlink:href="#linearGradient2795"
       id="radialGradient4015"
       gradientUnits="userSpaceOnUse"
       gradientTransform="matrix(2.382716e-8,-0.296405,1.43676,4.683673e-7,-128.544,150.5202)"
       cx="61.518883"
       cy="132.28575"
       fx="61.518883"
       fy="132.28575"
       r="29.036913" />
    <filter
       inkscape:label="Simple blur"
       inkscape:menu="ABCs"
       inkscape:menu-tooltip="Simple Gaussian blur, same as the blur slider in Fill and Stroke dialog"
       color-interpolation-filters="sRGB"
       id="filter4033">
      <feGaussianBlur
         stdDeviation="3"
         id="feGaussianBlur4035" />
    </filter>
    <filter
       inkscape:label="Simple blur"
       inkscape:menu="ABCs"
       inkscape:menu-tooltip="Simple Gaussian blur, same as the blur slider in Fill and Stroke dialog"
       color-interpolation-filters="sRGB"
       id="filter4098">
      <feGaussianBlur
         stdDeviation="3"
         id="feGaussianBlur4100" />
    </filter>
    <linearGradient
       inkscape:collect="always"
       xlink:href="#linearGradient4689"
       id="linearGradient4108"
       gradientUnits="userSpaceOnUse"
       gradientTransform="matrix(0.562541,0,0,0.567972,78.606431,497.83049)"
       x1="26.648937"
       y1="20.603781"
       x2="135.66525"
       y2="114.39767" />
    <linearGradient
       inkscape:collect="always"
       xlink:href="#linearGradient4671"
       id="linearGradient4110"
       gradientUnits="userSpaceOnUse"
       gradientTransform="matrix(0.562541,0,0,0.567972,78.606431,497.83049)"
       x1="150.96111"
       y1="192.35176"
       x2="112.03144"
       y2="137.27299" />
  </defs>
  <sodipodi:namedview
     id="base"
     pagecolor="#ffffff"
     bordercolor="#666666"
     borderopacity="1.0"
     inkscape:pageopacity="0.0"
     inkscape:pageshadow="2"
     inkscape:zoom="0.7"
     inkscape:cx="-23.374673"
     inkscape:cy="549.29607"
     inkscape:document-units="px"
     inkscape:current-layer="layer1"
     showgrid="false"
     inkscape:window-width="1920"
     inkscape:window-height="1053"
     inkscape:window-x="0"
     inkscape:window-y="27"
     inkscape:window-maximized="1"
     showguides="true"
     inkscape:guide-bbox="true"
     inkscape:showpageshadow="false">
    <sodipodi:guide
       orientation="1,0"
       position="25.714286,340"
       id="guide3425" />
    <sodipodi:guide
       orientation="1,0"
       position="718.57143,41.428571"
       id="guide3427" />
    <sodipodi:guide
       orientation="0,1"
       position="819.28571,42.857143"
       id="guide3437" />
    <sodipodi:guide
       orientation="0,1"
       position="706.09663,1007.6272"
       id="guide3591" />
  </sodipodi:namedview>
  <metadata
     id="metadata7">
    <rdf:RDF>
      <cc:Work
         rdf:about="">
        <dc:format>image/svg+xml</dc:format>
        <dc:type
           rdf:resource="http://purl.org/dc/dcmitype/StillImage" />
        <dc:title>Afiche PyTatuy2016</dc:title>
        <dc:creator>
          <cc:Agent>
            <dc:title>David Hernandez Aponte</dc:title>
          </cc:Agent>
        </dc:creator>
        <dc:rights>
          <cc:Agent>
            <dc:title>CC BY 4.0</dc:title>
          </cc:Agent>
        </dc:rights>
        <dc:date>2016-01-18</dc:date>
        <dc:publisher>
          <cc:Agent>
            <dc:title>David Hernandez Aponte</dc:title>
          </cc:Agent>
        </dc:publisher>
        <dc:language>es-VE</dc:language>
        <dc:subject>
          <rdf:Bag>
            <rdf:li>python</rdf:li>
            <rdf:li>merida</rdf:li>
            <rdf:li>venezuela</rdf:li>
            <rdf:li>pytatuy</rdf:li>
          </rdf:Bag>
        </dc:subject>
        <cc:license
           rdf:resource="http://creativecommons.org/licenses/by/4.0/" />
      </cc:Work>
      <cc:License
         rdf:about="http://creativecommons.org/licenses/by/3.0/">
        <cc:permits
           rdf:resource="http://creativecommons.org/ns#Reproduction" />
        <cc:permits
           rdf:resource="http://creativecommons.org/ns#Distribution" />
        <cc:requires
           rdf:resource="http://creativecommons.org/ns#Notice" />
        <cc:requires
           rdf:resource="http://creativecommons.org/ns#Attribution" />
        <cc:permits
           rdf:resource="http://creativecommons.org/ns#DerivativeWorks" />
      </cc:License>
    </rdf:RDF>
  </metadata>
  <g
     inkscape:label="Capa 1"
     inkscape:groupmode="layer"
     id="layer1">
    <g
       id="g3059"
       transform="translate(990.66923,7.3098043)">
      <path
         d="m 184.61344,61.929363 c 0,-14.56215 -4.15226,-22.03817 -12.45678,-22.44755 -3.30427,-0.15595 -6.53055,0.37039 -9.66912,1.58878 -2.505,0.89673 -4.19124,1.78372 -5.07823,2.68045 l 0,34.75812 c 5.31216,3.33351 10.02976,4.88329 14.14303,4.63962 8.70415,-0.57508 13.0611,-7.64172 13.0611,-21.21942 z m 10.24419,0.60432 c 0,7.39804 -1.73498,13.53871 -5.22444,18.422 -3.88909,5.5266 -9.27923,8.37275 -16.17042,8.52871 -5.1952,0.1657 -10.54635,-1.46207 -16.05346,-4.87355 l 0,31.590317 -8.90884,-3.17755 0,-70.120567 c 1.46206,-1.79346 3.34325,-3.3335 5.62407,-4.63961 5.30242,-3.08983 11.74524,-4.67861 19.32848,-4.75658 l 0.12671,0.12671 c 6.93018,-0.08773 12.27159,2.75843 16.02422,8.5287 3.4992,5.29267 5.25368,12.07665 5.25368,20.37142 z"
         style="fill:#646464;fill-opacity:1"
         id="path46"
         inkscape:connector-curvature="0" />
      <path
         d="m 249.30487,83.265743 c 0,9.92254 -0.9942,16.794237 -2.9826,20.615097 -1.99816,3.82086 -5.79952,6.8717 -11.41385,9.14277 -4.55189,1.79346 -9.47417,2.76817 -14.75709,2.93387 l -1.47181,-5.61432 c 5.37064,-0.73103 9.15252,-1.46207 11.34561,-2.1931 4.31796,-1.46206 7.28108,-3.70389 8.90884,-6.706 1.30611,-2.446517 1.94942,-7.115367 1.94942,-14.026057 l 0,-2.3198 c -6.09193,2.76817 -12.47628,4.14251 -19.15303,4.14251 -4.38619,0 -8.25579,-1.37434 -11.58929,-4.14251 -3.74289,-3.01186 -5.61433,-6.83272 -5.61433,-11.46258 l 0,-37.07793 8.90884,-3.05084 0,37.3216 c 0,3.98656 1.28662,7.0569 3.85985,9.21101 2.57323,2.1541 5.90674,3.18729 9.99077,3.10932 4.08403,-0.08773 8.46047,-1.66676 13.10983,-4.75658 l 0,-43.54025 8.90884,0 0,48.41379 z"
         style="fill:#646464;fill-opacity:1"
         id="path48"
         inkscape:connector-curvature="0" />
      <path
         d="m 284.08249,88.997033 c -1.06243,0.08772 -2.03714,0.12671 -2.93387,0.12671 -5.03925,0 -8.96733,-1.19889 -11.77449,-3.60642 -2.79742,-2.40753 -4.20099,-5.73129 -4.20099,-9.97127 l 0,-35.08953 -6.10168,0 0,-5.60457 6.10168,0 0,-14.88381 8.89909,-3.16781 0,18.05162 10.01026,0 0,5.60457 -10.01026,0 0,34.84585 c 0,3.34325 0.89673,5.71179 2.6902,7.09588 1.54004,1.14041 3.98656,1.79347 7.32006,1.95917 l 0,4.63961 z"
         style="fill:#646464;fill-opacity:1"
         id="path50"
         inkscape:connector-curvature="0" />
      <path
         d="m 338.02288,88.266003 -8.90884,0 0,-34.38773 c 0,-3.49921 -0.81876,-6.51106 -2.44651,-9.02581 -1.88119,-2.84615 -4.49342,-4.26923 -7.84641,-4.26923 -4.08404,0 -9.19152,2.15411 -15.32242,6.46233 l 0,41.22044 -8.90885,0 0,-82.1972101 8.90885,-2.80716 0,37.4385701 c 5.6923,-4.14251 11.91093,-6.21864 18.66566,-6.21864 4.7176,0 8.53846,1.58877 11.46258,4.75658 2.93388,3.1678 4.39594,7.11537 4.39594,11.83296 l 0,37.1949 0,0 z"
         style="fill:#646464;fill-opacity:1"
         id="path52"
         inkscape:connector-curvature="0" />
      <path
         d="m 385.37424,60.525783 c 0,-5.59483 -1.06242,-10.21495 -3.17755,-13.87011 -2.51474,-4.45442 -6.42332,-6.80347 -11.70625,-7.04715 -9.76658,0.56534 -14.64012,7.56375 -14.64012,20.97574 0,6.15042 1.01369,11.28713 3.06057,15.41015 2.61223,5.25368 6.53056,7.84641 11.755,7.75869 9.80557,-0.07798 14.70835,-7.81717 14.70835,-23.22732 z m 9.75685,0.05848 c 0,7.96338 -2.03714,14.5914 -6.10168,19.88407 -4.47391,5.92623 -10.65357,8.89909 -18.53897,8.89909 -7.81716,0 -13.90909,-2.97286 -18.30503,-8.89909 -3.98656,-5.29267 -5.97497,-11.92069 -5.97497,-19.88407 0,-7.48576 2.15411,-13.78238 6.46232,-18.90935 4.5519,-5.43888 10.53661,-8.16806 17.93464,-8.16806 7.39805,0 13.42174,2.72918 18.06137,8.16806 4.3082,5.12697 6.46232,11.42359 6.46232,18.90935 z"
         style="fill:#646464;fill-opacity:1"
         id="path54"
         inkscape:connector-curvature="0" />
      <path
         d="m 446.20583,88.266003 -8.90884,0 0,-36.33715 c 0,-3.98656 -1.19889,-7.09588 -3.59667,-9.33772 -2.39779,-2.23208 -5.59483,-3.31401 -9.58139,-3.22628 -4.23023,0.07798 -8.25579,1.46206 -12.07664,4.14251 l 0,44.75864 -8.90884,0 0,-45.86006 c 5.12697,-3.73313 9.84456,-6.16991 14.15276,-7.31032 4.06455,-1.06243 7.65148,-1.58877 10.74131,-1.58877 2.11512,0 4.10352,0.20469 5.97496,0.61406 3.49921,0.80901 6.34535,2.31006 8.53845,4.51291 2.44651,2.43677 3.6649,5.3609 3.6649,8.78212 l 0,40.85006 z"
         style="fill:#646464;fill-opacity:1"
         id="path56"
         inkscape:connector-curvature="0" />
      <path
         id="path1948"
         d="m 60.510156,6.3979729 c -4.583653,0.021298 -8.960939,0.4122177 -12.8125,1.09375 C 36.35144,9.4962267 34.291407,13.691825 34.291406,21.429223 l 0,10.21875 26.8125,0 0,3.40625 -26.8125,0 -10.0625,0 c -7.792459,0 -14.6157592,4.683717 -16.7500002,13.59375 -2.46182,10.212966 -2.5710151,16.586023 0,27.25 1.9059283,7.937852 6.4575432,13.593748 14.2500002,13.59375 l 9.21875,0 0,-12.25 c 0,-8.849902 7.657144,-16.656248 16.75,-16.65625 l 26.78125,0 c 7.454951,0 13.406253,-6.138164 13.40625,-13.625 l 0,-25.53125 c 0,-7.266339 -6.12998,-12.7247775 -13.40625,-13.9375001 -4.605987,-0.7667253 -9.385097,-1.1150483 -13.96875,-1.09375 z m -14.5,8.2187501 c 2.769547,0 5.03125,2.298646 5.03125,5.125 -2e-6,2.816336 -2.261703,5.09375 -5.03125,5.09375 -2.779476,-1e-6 -5.03125,-2.277415 -5.03125,-5.09375 -1e-6,-2.826353 2.251774,-5.125 5.03125,-5.125 z"
         style="fill:url(#linearGradient1478);fill-opacity:1"
         inkscape:connector-curvature="0" />
      <path
         id="path1950"
         d="m 91.228906,35.054223 0,11.90625 c 0,9.230755 -7.825895,16.999999 -16.75,17 l -26.78125,0 c -7.335833,0 -13.406249,6.278483 -13.40625,13.625 l 0,25.531247 c 0,7.26634 6.318588,11.54032 13.40625,13.625 8.487331,2.49561 16.626237,2.94663 26.78125,0 6.750155,-1.95439 13.406253,-5.88761 13.40625,-13.625 l 0,-10.218747 -26.78125,0 0,-3.40625 26.78125,0 13.406254,0 c 7.79246,0 10.69625,-5.435408 13.40624,-13.59375 2.79933,-8.398886 2.68022,-16.475776 0,-27.25 -1.92578,-7.757441 -5.60387,-13.59375 -13.40624,-13.59375 l -10.062504,0 z m -15.0625,64.65625 c 2.779478,3e-6 5.03125,2.277417 5.03125,5.093747 -2e-6,2.82635 -2.251775,5.125 -5.03125,5.125 -2.76955,0 -5.03125,-2.29865 -5.03125,-5.125 2e-6,-2.81633 2.261697,-5.093747 5.03125,-5.093747 z"
         style="fill:url(#linearGradient1475);fill-opacity:1"
         inkscape:connector-curvature="0" />
      <path
         sodipodi:nodetypes="ccccccccccccccccccccccc"
         id="text3004"
         style="font-size:15.16445827px;font-style:normal;font-weight:normal;line-height:125%;fill:#646464;fill-opacity:1;stroke:none;font-family:Bitstream Vera Sans"
         d="m 463.5544,26.909383 1.56195,0 0,-9.79624 3.70013,0 0,-1.16766 -8.96221,0 0,1.16766 3.70013,0 0,9.79624 m 6.64702,0 1.33447,0 0,-8.94703 2.89641,8.945906 1.48569,0 3.01816,-8.915576 0,8.9167 1.45579,0 0,-10.9639 -1.92589,0 -3.29831,9.392857 -2.81297,-9.392857 -2.15335,0 0,10.9639"
         inkscape:connector-curvature="0" />
      <path
         transform="matrix(0.73406,0,0,0.809524,16.24958,27.00935)"
         d="m 110.46717,132.28575 c 0,4.75334 -21.914896,8.60668 -48.948287,8.60668 -27.033391,0 -48.948284,-3.85334 -48.948284,-8.60668 0,-4.75334 21.914893,-8.60668 48.948284,-8.60668 27.033391,0 48.948287,3.85334 48.948287,8.60668 z"
         sodipodi:ry="8.6066771"
         sodipodi:rx="48.948284"
         sodipodi:cy="132.28575"
         sodipodi:cx="61.518883"
         id="path1894"
         style="opacity:0.44382025;fill:url(#radialGradient1480);fill-opacity:1;fill-rule:nonzero;stroke:none"
         sodipodi:type="arc" />
    </g>
    <rect
       style="fill:#000000;fill-opacity:1;stroke-width:0.1;stroke-miterlimit:4;stroke-dasharray:none"
       id="rect3159"
       width="761.65503"
       height="1057.2919"
       x="-2.0203052"
       y="-4.2573791" />
    <g
       id="g3580"
       transform="translate(430,-314.28571)">
      <circle
         transform="translate(697.57446,382.98119)"
         inkscape:export-ydpi="144"
         inkscape:export-xdpi="144"
         r="95"
         cy="418.07648"
         cx="225.71428"
         id="path4528"
         style="fill:none;stroke:#b3b3b3;stroke-width:1;stroke-miterlimit:4;stroke-dasharray:none"
         sodipodi:cx="225.71428"
         sodipodi:cy="418.07648"
         sodipodi:rx="95"
         sodipodi:ry="95"
         d="m 320.71428,418.07648 c 0,52.46705 -42.53295,95 -95,95 -52.46705,0 -95,-42.53295 -95,-95 0,-52.46705 42.53295,-95 95,-95 52.46705,0 95,42.53295 95,95 z" />
      <path
         inkscape:connector-curvature="0"
         id="rect2824-3"
         d="m 854.17661,846.46621 0,19.08766 138.22429,0 0,-19.08766 -138.22429,0 z m 4.60361,3.55246 1.9564,0 0,1.95465 1.95465,0 0,1.95464 1.95464,0 0,1.95465 -1.95464,0 0,1.95464 -1.95465,0 0,1.95465 -1.9564,0 0,-1.95465 1.9564,0 0,-1.95464 1.95465,0 0,-1.95465 -1.95465,0 0,-1.95464 -1.9564,0 0,-1.95465 z m 7.82034,0 1.95464,0 0,1.95465 1.95464,0 0,1.95464 1.95464,0 0,1.95465 -1.95464,0 0,1.95464 -1.95464,0 0,1.95465 -1.95464,0 0,-1.95465 1.95464,0 0,-1.95464 1.95464,0 0,-1.95465 -1.95464,0 0,-1.95464 -1.95464,0 0,-1.95465 z m 7.81857,0 1.95464,0 0,1.95465 1.95465,0 0,1.95464 1.95464,0 0,1.95465 -1.95464,0 0,1.95464 -1.95465,0 0,1.95465 -1.95464,0 0,-1.95465 1.95464,0 0,-1.95464 1.95465,0 0,-1.95465 -1.95465,0 0,-1.95464 -1.95464,0 0,-1.95465 z m 15.63891,0 1.95464,0 0,1.95465 -1.95464,0 0,-1.95465 z m 44.96033,0 1.95464,0 0,1.95465 1.95465,0 0,1.95464 -1.95465,0 0,3.90929 1.95465,0 0,1.95465 -1.95465,0 0,-1.95465 -1.95464,0 0,-3.90929 -1.9564,0 0,-1.95464 1.9564,0 0,-1.95465 z m -41.05104,1.95465 7.81858,0 0,1.95464 1.95464,0 0,5.86394 -1.95464,0 0,-5.86394 -1.95465,0 0,5.86394 -1.95464,0 0,-5.86394 -1.95465,0 0,5.86394 -1.95464,0 0,-7.81858 z m 11.72787,0 5.86569,0 0,1.95464 1.95464,0 0,3.90929 -1.95464,0 0,1.95465 -3.91105,0 0,3.90928 -1.95464,0 0,-11.72786 z m 11.72962,0 3.90929,0 0,1.95464 1.95464,0 0,3.90929 -1.95464,0 0,1.95465 -3.90929,0 0,-1.95465 -1.95464,0 0,-3.90929 1.95464,0 0,-1.95464 z m 7.81857,0 1.95465,0 0,1.95464 1.95464,0 0,-1.95464 1.95465,0 0,1.95464 -1.95465,0 0,1.95465 -1.95464,0 0,3.90929 -1.95465,0 0,-7.81858 z m 23.4575,0 5.86393,0 0,1.95464 1.95465,0 0,3.90929 -1.95465,0 0,1.95465 -3.90929,0 0,3.90928 -1.95464,0 0,-11.72786 z m 19.5482,0 1.95464,0 0,3.90929 0,1.95464 1.95464,0 0,-1.95464 1.95464,0 0,-3.90929 1.95465,0 0,3.90929 -1.95465,0 0,1.95464 -1.95464,0 0,1.95465 -1.95464,0 0,-1.95465 -1.95464,0 0,-5.86393 z m 11.72786,0 3.91104,0 0,1.95464 1.95465,0 0,1.95465 -3.91105,0 0,1.95464 1.9564,0 0,1.95465 -3.91104,0 0,-1.95465 -1.95465,0 0,-3.90929 1.95465,0 0,-1.95464 z m -21.50284,0.89998 1.9564,0 0,5.86393 3.90929,0 0,-5.86393 1.95464,0 0,9.77322 -1.95464,0 0,1.95464 -3.90929,0 0,-1.95464 3.90929,0 0,-1.95464 -3.90929,0 0,-1.95465 -1.9564,0 0,-5.86393 z m -68.41607,1.05466 1.95464,0 0,5.86394 -1.95464,0 0,-5.86394 z m 17.5918,0.0158 0,3.87765 3.91105,0 0,-3.87765 -3.91105,0 z m 9.77498,0 0,3.87765 3.90929,0 0,-3.87765 -3.90929,0 z m 33.23071,0 0,3.87765 3.90929,0 0,-3.87765 -3.90929,0 z m 29.32142,0 0,1.92301 1.95464,0 0,-1.92301 -1.95464,0 z"
         style="color:#000000;fill:#333333;fill-opacity:1;fill-rule:nonzero;stroke:none;stroke-width:1.10892761;marker:none;visibility:visible;display:inline;overflow:visible;enable-background:accumulate" />
      <g
         transform="translate(697.57446,382.98119)"
         id="text2816-0"
         style="font-size:7.79449606px;font-style:normal;font-variant:normal;font-weight:normal;font-stretch:normal;text-align:center;line-height:100%;letter-spacing:0px;word-spacing:0px;writing-mode:lr-tb;text-anchor:middle;fill:#000000;fill-opacity:1;stroke:none;font-family:Linux Biolinum O;-inkscape-font-specification:Linux Biolinum O">
        <path
           id="path3349"
           style="font-size:56.12037277px;font-style:normal;font-variant:normal;font-weight:normal;font-stretch:normal;text-align:center;line-height:100%;writing-mode:lr-tb;text-anchor:middle;stroke:none;font-family:'04b03';-inkscape-font-specification:'04b03'"
           d="m 200.92589,412.78146 -7.01504,0 0,21.04514 7.01504,0 0,-21.04514 z m 14.0301,28.06018 0,7.01505 7.01504,0 0,-35.07523 -7.01504,0 0,21.04514 -14.0301,0 0,7.01504 14.0301,0 z m -14.0301,7.01505 0,7.01505 14.0301,0 0,-7.01505 -14.0301,0 z"
           inkscape:connector-curvature="0" />
        <path
           id="path3351"
           style="font-size:56.12037277px;font-style:normal;font-variant:normal;font-weight:normal;font-stretch:normal;text-align:center;line-height:100%;writing-mode:lr-tb;text-anchor:middle;stroke:none;font-family:'04b03';-inkscape-font-specification:'04b03'"
           d="m 228.98608,433.8266 7.01505,0 0,-28.06019 -7.01505,0 0,28.06019 z m 14.03009,0 7.01505,0 0,-14.0301 -7.01505,0 0,14.0301 z m 7.01505,-28.06019 0,14.03009 7.01505,0 0,-14.03009 -7.01505,0 z m -14.03009,35.07523 7.01504,0 0,-7.01504 -7.01504,0 0,7.01504 z"
           inkscape:connector-curvature="0" />
        <path
           id="path3353"
           style="font-size:56.12037277px;font-style:normal;font-variant:normal;font-weight:normal;font-stretch:normal;text-align:center;line-height:100%;writing-mode:lr-tb;text-anchor:middle;stroke:none;font-family:'04b03';-inkscape-font-specification:'04b03'"
           d="m 285.10645,440.84164 0,-7.01504 -14.03009,0 0,-7.01505 14.03009,0 0,-7.01505 -14.03009,0 0,-7.01504 14.03009,0 0,-7.01505 -21.04513,0 0,35.07523 21.04513,0 z"
           inkscape:connector-curvature="0" />
      </g>
      <path
         id="path2861-2-7"
         d="m 869.62244,737.72481 -4.01904,3.56842 -14.63904,0 0.77945,6.36957 15.47939,5.15167 0.0122,0.0731 117.78215,0 0,-10.59564 -102.76556,0 -4.2139,-4.56709 -8.41562,0 z m 115.39508,15.16273 0,13.38461 10.59564,0 0,-13.38461 -10.59564,0 z m 0,13.38461 -115.95531,0 0,45.79267 3.73892,7.79449 6.85672,2.33835 0,-45.32986 105.35967,0 0,-10.59565 z m -114.85921,-27.1833 3.26395,0 0,3.20305 -6.22342,0 2.95947,-3.20305 z"
         style="font-size:medium;font-style:normal;font-variant:normal;font-weight:normal;font-stretch:normal;text-indent:0;text-align:center;text-decoration:none;line-height:100%;letter-spacing:0px;word-spacing:0px;text-transform:none;direction:ltr;block-progression:tb;writing-mode:lr-tb;text-anchor:middle;color:#000000;fill:#000000;fill-opacity:1;fill-rule:nonzero;stroke:none;stroke-width:3;marker:none;visibility:visible;font-family:'04b03';-inkscape-font-specification:'04b03'"
         inkscape:connector-curvature="0" />
    </g>
    <g
       id="g3151"
       transform="matrix(6.5068819,0,0,6.5068819,-456.08907,-3404.6337)"
       style="opacity:0.3">
      <path
         inkscape:connector-curvature="0"
         style="fill:url(#linearGradient4108);fill-opacity:1"
         d="m 148.51634,509.53378 c -4.58366,0.0213 -8.96094,0.41222 -12.8125,1.09375 -11.34622,2.00451 -13.40625,6.2001 -13.40625,13.9375 l 0,10.21875 26.8125,0 0,3.40625 -26.8125,0 -10.0625,0 c -7.79246,0 -14.615763,4.68372 -16.750004,13.59375 -2.46182,10.21297 -2.571015,16.58603 0,27.25 1.905928,7.93785 6.457544,13.59375 14.250004,13.59375 l 9.21875,0 0,-12.25 c 0,-8.8499 7.65714,-16.65625 16.75,-16.65625 l 26.78125,0 c 7.45495,0 13.40625,-6.13816 13.40625,-13.625 l 0,-25.53125 c 0,-7.26634 -6.12998,-12.72477 -13.40625,-13.9375 -4.60599,-0.76672 -9.3851,-1.11505 -13.96875,-1.09375 z m -14.5,8.21875 c 2.76954,0 5.03125,2.29865 5.03125,5.125 -1e-5,2.81634 -2.26171,5.09375 -5.03125,5.09375 -2.77948,0 -5.03125,-2.27741 -5.03125,-5.09375 -1e-5,-2.82635 2.25177,-5.125 5.03125,-5.125 z"
         id="path3105" />
      <path
         inkscape:connector-curvature="0"
         style="fill:url(#linearGradient4110);fill-opacity:1"
         d="m 179.23509,538.19003 0,11.90625 c 0,9.23076 -7.8259,17 -16.75,17 l -26.78125,0 c -7.33584,0 -13.40625,6.27849 -13.40625,13.625 l 0,25.53125 c 0,7.26634 6.31858,11.54032 13.40625,13.625 8.48733,2.49561 16.62623,2.94663 26.78125,0 6.75015,-1.95439 13.40625,-5.88761 13.40625,-13.625 l 0,-10.21875 -26.78125,0 0,-3.40625 26.78125,0 13.40625,0 c 7.79246,0 10.69625,-5.4354 13.40624,-13.59375 2.79933,-8.39888 2.68022,-16.47577 0,-27.25 -1.92578,-7.75744 -5.60387,-13.59375 -13.40624,-13.59375 l -10.0625,0 z m -15.0625,64.65625 c 2.77947,10e-6 5.03125,2.27742 5.03125,5.09375 -1e-5,2.82635 -2.25178,5.125 -5.03125,5.125 -2.76955,0 -5.03125,-2.29865 -5.03125,-5.125 0,-2.81633 2.26169,-5.09375 5.03125,-5.09375 z"
         id="path3107" />
    </g>
    <g
       id="g3608"
       transform="translate(7.7091892e-7,-4.6468867)">
      <flowRoot
         transform="matrix(3.1627239,0,0,3.1627239,-151.78934,-397.81031)"
         style="font-size:40px;font-style:normal;font-variant:normal;font-weight:600;font-stretch:normal;text-align:start;line-height:125%;letter-spacing:0px;word-spacing:0px;writing-mode:lr-tb;text-anchor:start;fill:#ffffff;fill-opacity:1;stroke:none;font-family:Flux;-inkscape-font-specification:Flux Semi-Bold"
         id="flowRoot3946"
         xml:space="preserve"><flowRegion
           id="flowRegion3948"><rect
             style="font-size:40px;font-style:normal;font-variant:normal;font-weight:600;font-stretch:normal;text-align:start;line-height:125%;writing-mode:lr-tb;text-anchor:start;fill:#ffffff;font-family:Flux;-inkscape-font-specification:Flux Semi-Bold"
             y="135.14368"
             x="54.548237"
             height="143.44167"
             width="252.53813"
             id="rect3950" /></flowRegion><flowPara
           style="font-size:32.32063293px;line-height:100%"
           id="flowPara3954">PyTatuy 2016</flowPara></flowRoot>      <g
         transform="matrix(1.047433,0,0,1.047433,485.64627,-808.62573)"
         id="g3977">
        <g
           id="g3970"
           transform="translate(20.910469,-51.428572)">
          <g
             style="font-size:7.79449606px;font-style:normal;font-variant:normal;font-weight:normal;font-stretch:normal;text-align:center;line-height:100%;letter-spacing:0px;word-spacing:0px;writing-mode:lr-tb;text-anchor:middle;fill:#ffffff;fill-opacity:1;stroke:none;font-family:Linux Biolinum O;-inkscape-font-specification:Linux Biolinum O"
             id="g3936"
             transform="translate(-122.66941,511.27056)">
            <path
               inkscape:connector-curvature="0"
               d="m 200.92589,412.78146 -7.01504,0 0,21.04514 7.01504,0 0,-21.04514 z m 14.0301,28.06018 0,7.01505 7.01504,0 0,-35.07523 -7.01504,0 0,21.04514 -14.0301,0 0,7.01504 14.0301,0 z m -14.0301,7.01505 0,7.01505 14.0301,0 0,-7.01505 -14.0301,0 z"
               style="font-size:56.12037277px;font-style:normal;font-variant:normal;font-weight:normal;font-stretch:normal;text-align:center;line-height:100%;writing-mode:lr-tb;text-anchor:middle;fill:#ffffff;stroke:none;font-family:'04b03';-inkscape-font-specification:'04b03'"
               id="path3938" />
            <path
               inkscape:connector-curvature="0"
               d="m 228.98608,433.8266 7.01505,0 0,-28.06019 -7.01505,0 0,28.06019 z m 14.03009,0 7.01505,0 0,-14.0301 -7.01505,0 0,14.0301 z m 7.01505,-28.06019 0,14.03009 7.01505,0 0,-14.03009 -7.01505,0 z m -14.03009,35.07523 7.01504,0 0,-7.01504 -7.01504,0 0,7.01504 z"
               style="font-size:56.12037277px;font-style:normal;font-variant:normal;font-weight:normal;font-stretch:normal;text-align:center;line-height:100%;writing-mode:lr-tb;text-anchor:middle;fill:#ffffff;stroke:none;font-family:'04b03';-inkscape-font-specification:'04b03'"
               id="path3940" />
            <path
               inkscape:connector-curvature="0"
               d="m 285.10645,440.84164 0,-7.01504 -14.03009,0 0,-7.01505 14.03009,0 0,-7.01505 -14.03009,0 0,-7.01504 14.03009,0 0,-7.01505 -21.04513,0 0,35.07523 21.04513,0 z"
               style="font-size:56.12037277px;font-style:normal;font-variant:normal;font-weight:normal;font-stretch:normal;text-align:center;line-height:100%;writing-mode:lr-tb;text-anchor:middle;fill:#ffffff;stroke:none;font-family:'04b03';-inkscape-font-specification:'04b03'"
               id="path3942" />
          </g>
          <path
             inkscape:connector-curvature="0"
             style="font-size:medium;font-style:normal;font-variant:normal;font-weight:normal;font-stretch:normal;text-indent:0;text-align:center;text-decoration:none;line-height:100%;letter-spacing:0px;word-spacing:0px;text-transform:none;direction:ltr;block-progression:tb;writing-mode:lr-tb;text-anchor:middle;color:#000000;fill:#ffffff;fill-opacity:1;fill-rule:nonzero;stroke:none;stroke-width:3;marker:none;visibility:visible;font-family:'04b03';-inkscape-font-specification:'04b03'"
             d="m 49.378567,866.01418 -4.01904,3.56842 -14.63904,0 0.77945,6.36957 15.47939,5.15167 0.0122,0.0731 117.782153,0 0,-10.59564 -102.765563,0 -4.2139,-4.56709 -8.41562,0 z m 115.395083,15.16273 0,13.38461 10.59564,0 0,-13.38461 -10.59564,0 z m 0,13.38461 -115.955313,0 0,45.79265 3.73892,7.7945 6.85672,2.3384 0,-45.3299 105.359673,0 0,-10.59565 z m -114.859213,-27.1833 3.26395,0 0,3.20305 -6.22342,0 2.95947,-3.20305 z"
             id="path3944" />
        </g>
        <flowRoot
           xml:space="preserve"
           id="flowRoot3956"
           style="font-size:40px;font-style:normal;font-weight:normal;line-height:125%;letter-spacing:0px;word-spacing:0px;fill:#ffffff;fill-opacity:1;stroke:none;font-family:Sans"
           transform="translate(-5.3571429,-67.142857)"><flowRegion
             id="flowRegion3958"><rect
               id="rect3960"
               width="412.14224"
               height="56.568542"
               x="32.324883"
               y="991.75305"
               style="fill:#ffffff" /></flowRegion><flowPara
             id="flowPara3966"
             style="font-size:16px;font-style:normal;font-variant:normal;font-weight:normal;font-stretch:normal;text-align:start;line-height:125%;writing-mode:lr-tb;text-anchor:start;font-family:'04b03';-inkscape-font-specification:'04b03'">&gt;&gt;&gt; import PyConVe2016</flowPara></flowRoot>      </g>
    </g>
    <g
       transform="translate(19.663952,868.43989)"
       id="g3989">
      <path
         inkscape:connector-curvature="0"
         id="path3991"
         style="fill:#646464;fill-opacity:1"
         d="m 184.61344,61.929363 c 0,-14.56215 -4.15226,-22.03817 -12.45678,-22.44755 -3.30427,-0.15595 -6.53055,0.37039 -9.66912,1.58878 -2.505,0.89673 -4.19124,1.78372 -5.07823,2.68045 l 0,34.75812 c 5.31216,3.33351 10.02976,4.88329 14.14303,4.63962 8.70415,-0.57508 13.0611,-7.64172 13.0611,-21.21942 z m 10.24419,0.60432 c 0,7.39804 -1.73498,13.53871 -5.22444,18.422 -3.88909,5.5266 -9.27923,8.37275 -16.17042,8.52871 -5.1952,0.1657 -10.54635,-1.46207 -16.05346,-4.87355 l 0,31.590317 -8.90884,-3.17755 0,-70.120567 c 1.46206,-1.79346 3.34325,-3.3335 5.62407,-4.63961 5.30242,-3.08983 11.74524,-4.67861 19.32848,-4.75658 l 0.12671,0.12671 c 6.93018,-0.08773 12.27159,2.75843 16.02422,8.5287 3.4992,5.29267 5.25368,12.07665 5.25368,20.37142 z" />
      <path
         inkscape:connector-curvature="0"
         id="path3993"
         style="fill:#646464;fill-opacity:1"
         d="m 249.30487,83.265743 c 0,9.92254 -0.9942,16.794237 -2.9826,20.615097 -1.99816,3.82086 -5.79952,6.8717 -11.41385,9.14277 -4.55189,1.79346 -9.47417,2.76817 -14.75709,2.93387 l -1.47181,-5.61432 c 5.37064,-0.73103 9.15252,-1.46207 11.34561,-2.1931 4.31796,-1.46206 7.28108,-3.70389 8.90884,-6.706 1.30611,-2.446517 1.94942,-7.115367 1.94942,-14.026057 l 0,-2.3198 c -6.09193,2.76817 -12.47628,4.14251 -19.15303,4.14251 -4.38619,0 -8.25579,-1.37434 -11.58929,-4.14251 -3.74289,-3.01186 -5.61433,-6.83272 -5.61433,-11.46258 l 0,-37.07793 8.90884,-3.05084 0,37.3216 c 0,3.98656 1.28662,7.0569 3.85985,9.21101 2.57323,2.1541 5.90674,3.18729 9.99077,3.10932 4.08403,-0.08773 8.46047,-1.66676 13.10983,-4.75658 l 0,-43.54025 8.90884,0 0,48.41379 z" />
      <path
         inkscape:connector-curvature="0"
         id="path3995"
         style="fill:#646464;fill-opacity:1"
         d="m 284.08249,88.997033 c -1.06243,0.08772 -2.03714,0.12671 -2.93387,0.12671 -5.03925,0 -8.96733,-1.19889 -11.77449,-3.60642 -2.79742,-2.40753 -4.20099,-5.73129 -4.20099,-9.97127 l 0,-35.08953 -6.10168,0 0,-5.60457 6.10168,0 0,-14.88381 8.89909,-3.16781 0,18.05162 10.01026,0 0,5.60457 -10.01026,0 0,34.84585 c 0,3.34325 0.89673,5.71179 2.6902,7.09588 1.54004,1.14041 3.98656,1.79347 7.32006,1.95917 l 0,4.63961 z" />
      <path
         inkscape:connector-curvature="0"
         id="path3997"
         style="fill:#646464;fill-opacity:1"
         d="m 338.02288,88.266003 -8.90884,0 0,-34.38773 c 0,-3.49921 -0.81876,-6.51106 -2.44651,-9.02581 -1.88119,-2.84615 -4.49342,-4.26923 -7.84641,-4.26923 -4.08404,0 -9.19152,2.15411 -15.32242,6.46233 l 0,41.22044 -8.90885,0 0,-82.1972101 8.90885,-2.80716 0,37.4385701 c 5.6923,-4.14251 11.91093,-6.21864 18.66566,-6.21864 4.7176,0 8.53846,1.58877 11.46258,4.75658 2.93388,3.1678 4.39594,7.11537 4.39594,11.83296 l 0,37.1949 0,0 z" />
      <path
         inkscape:connector-curvature="0"
         id="path3999"
         style="fill:#646464;fill-opacity:1"
         d="m 385.37424,60.525783 c 0,-5.59483 -1.06242,-10.21495 -3.17755,-13.87011 -2.51474,-4.45442 -6.42332,-6.80347 -11.70625,-7.04715 -9.76658,0.56534 -14.64012,7.56375 -14.64012,20.97574 0,6.15042 1.01369,11.28713 3.06057,15.41015 2.61223,5.25368 6.53056,7.84641 11.755,7.75869 9.80557,-0.07798 14.70835,-7.81717 14.70835,-23.22732 z m 9.75685,0.05848 c 0,7.96338 -2.03714,14.5914 -6.10168,19.88407 -4.47391,5.92623 -10.65357,8.89909 -18.53897,8.89909 -7.81716,0 -13.90909,-2.97286 -18.30503,-8.89909 -3.98656,-5.29267 -5.97497,-11.92069 -5.97497,-19.88407 0,-7.48576 2.15411,-13.78238 6.46232,-18.90935 4.5519,-5.43888 10.53661,-8.16806 17.93464,-8.16806 7.39805,0 13.42174,2.72918 18.06137,8.16806 4.3082,5.12697 6.46232,11.42359 6.46232,18.90935 z" />
      <path
         inkscape:connector-curvature="0"
         id="path4001"
         style="fill:#646464;fill-opacity:1"
         d="m 446.20583,88.266003 -8.90884,0 0,-36.33715 c 0,-3.98656 -1.19889,-7.09588 -3.59667,-9.33772 -2.39779,-2.23208 -5.59483,-3.31401 -9.58139,-3.22628 -4.23023,0.07798 -8.25579,1.46206 -12.07664,4.14251 l 0,44.75864 -8.90884,0 0,-45.86006 c 5.12697,-3.73313 9.84456,-6.16991 14.15276,-7.31032 4.06455,-1.06243 7.65148,-1.58877 10.74131,-1.58877 2.11512,0 4.10352,0.20469 5.97496,0.61406 3.49921,0.80901 6.34535,2.31006 8.53845,4.51291 2.44651,2.43677 3.6649,5.3609 3.6649,8.78212 l 0,40.85006 z" />
      <path
         inkscape:connector-curvature="0"
         style="fill:url(#linearGradient4011);fill-opacity:1"
         d="m 60.510156,6.3979729 c -4.583653,0.021298 -8.960939,0.4122177 -12.8125,1.09375 C 36.35144,9.4962267 34.291407,13.691825 34.291406,21.429223 l 0,10.21875 26.8125,0 0,3.40625 -26.8125,0 -10.0625,0 c -7.792459,0 -14.6157592,4.683717 -16.7500002,13.59375 -2.46182,10.212966 -2.5710151,16.586023 0,27.25 1.9059283,7.937852 6.4575432,13.593748 14.2500002,13.59375 l 9.21875,0 0,-12.25 c 0,-8.849902 7.657144,-16.656248 16.75,-16.65625 l 26.78125,0 c 7.454951,0 13.406253,-6.138164 13.40625,-13.625 l 0,-25.53125 c 0,-7.266339 -6.12998,-12.7247775 -13.40625,-13.9375001 -4.605987,-0.7667253 -9.385097,-1.1150483 -13.96875,-1.09375 z m -14.5,8.2187501 c 2.769547,0 5.03125,2.298646 5.03125,5.125 -2e-6,2.816336 -2.261703,5.09375 -5.03125,5.09375 -2.779476,-1e-6 -5.03125,-2.277415 -5.03125,-5.09375 -1e-6,-2.826353 2.251774,-5.125 5.03125,-5.125 z"
         id="path4003" />
      <path
         inkscape:connector-curvature="0"
         style="fill:url(#linearGradient4013);fill-opacity:1"
         d="m 91.228906,35.054223 0,11.90625 c 0,9.230755 -7.825895,16.999999 -16.75,17 l -26.78125,0 c -7.335833,0 -13.406249,6.278483 -13.40625,13.625 l 0,25.531247 c 0,7.26634 6.318588,11.54032 13.40625,13.625 8.487331,2.49561 16.626237,2.94663 26.78125,0 6.750155,-1.95439 13.406253,-5.88761 13.40625,-13.625 l 0,-10.218747 -26.78125,0 0,-3.40625 26.78125,0 13.406254,0 c 7.79246,0 10.69625,-5.435408 13.40624,-13.59375 2.79933,-8.398886 2.68022,-16.475776 0,-27.25 -1.92578,-7.757441 -5.60387,-13.59375 -13.40624,-13.59375 l -10.062504,0 z m -15.0625,64.65625 c 2.779478,3e-6 5.03125,2.277417 5.03125,5.093747 -2e-6,2.82635 -2.251775,5.125 -5.03125,5.125 -2.76955,0 -5.03125,-2.29865 -5.03125,-5.125 2e-6,-2.81633 2.261697,-5.093747 5.03125,-5.093747 z"
         id="path4005" />
      <path
         inkscape:connector-curvature="0"
         d="m 463.5544,26.909383 1.56195,0 0,-9.79624 3.70013,0 0,-1.16766 -8.96221,0 0,1.16766 3.70013,0 0,9.79624 m 6.64702,0 1.33447,0 0,-8.94703 2.89641,8.945906 1.48569,0 3.01816,-8.915576 0,8.9167 1.45579,0 0,-10.9639 -1.92589,0 -3.29831,9.392857 -2.81297,-9.392857 -2.15335,0 0,10.9639"
         style="font-size:15.16445827px;font-style:normal;font-weight:normal;line-height:125%;fill:#646464;fill-opacity:1;stroke:none;font-family:Bitstream Vera Sans"
         id="path4007"
         sodipodi:nodetypes="ccccccccccccccccccccccc" />
      <path
         sodipodi:type="arc"
         style="opacity:0.44382025;fill:url(#radialGradient4015);fill-opacity:1;fill-rule:nonzero;stroke:none"
         id="path4009"
         sodipodi:cx="61.518883"
         sodipodi:cy="132.28575"
         sodipodi:rx="48.948284"
         sodipodi:ry="8.6066771"
         d="m 110.46717,132.28575 c 0,4.75334 -21.914896,8.60668 -48.948287,8.60668 -27.033391,0 -48.948284,-3.85334 -48.948284,-8.60668 0,-4.75334 21.914893,-8.60668 48.948284,-8.60668 27.033391,0 48.948287,3.85334 48.948287,8.60668 z"
         transform="matrix(0.73406,0,0,0.809524,16.24958,27.00935)" />
    </g>
    <text
       xml:space="preserve"
       style="font-size:40px;font-style:normal;font-weight:normal;line-height:100%;letter-spacing:0px;word-spacing:0px;fill:#ffffff;fill-opacity:1;stroke:none;font-family:Sans"
       x="718.57141"
       y="1009.5051"
       id="text4017"
       sodipodi:linespacing="100%"><tspan
         sodipodi:role="line"
         x="718.57141"
         y="1009.5051"
         id="tspan4023"
         style="font-size:14px;font-style:normal;font-variant:normal;font-weight:600;font-stretch:normal;text-align:end;line-height:100%;text-anchor:end;font-family:Flux;-inkscape-font-specification:Flux Semi-Bold">Fundación Python de Venezuela RIF: J-40540577-5</tspan></text>
    <g
       id="g3439"
       transform="translate(0,-19.285714)">
      <text
         sodipodi:linespacing="125%"
         id="text4037"
         y="742.27594"
         x="27.314285"
         style="font-size:40px;font-style:normal;font-variant:normal;font-weight:600;font-stretch:normal;line-height:125%;letter-spacing:0px;word-spacing:0px;fill:#ffffff;fill-opacity:1;stroke:none;font-family:Flux;-inkscape-font-specification:Flux Semi-Bold"
         xml:space="preserve"><tspan
           style="fill:#ffffff"
           y="742.27594"
           x="27.314285"
           id="tspan4039"
           sodipodi:role="line">12 y 13 de febrero de 2016</tspan></text>
      <text
         xml:space="preserve"
         style="font-size:40px;font-style:normal;font-variant:normal;font-weight:600;font-stretch:normal;line-height:125%;letter-spacing:0px;word-spacing:0px;fill:#ffffff;fill-opacity:1;stroke:none;font-family:Flux;-inkscape-font-specification:Flux Semi-Bold"
         x="28.290285"
         y="779.0462"
         id="text4041"
         sodipodi:linespacing="125%"><tspan
           sodipodi:role="line"
           id="tspan4043"
           x="28.290285"
           y="779.0462"
           style="font-size:24px;fill:#ffffff">Biblioteca del Centro de Investigaciones de Astronomía (CIDA)</tspan><tspan
           id="tspan4047"
           sodipodi:role="line"
           x="28.290285"
           y="809.0462"
           style="font-size:24px;fill:#ffffff">Av. Alberto Carnevali, Sector La Hechicera, Mérida, Venezuela</tspan><tspan
           id="tspan4045"
           sodipodi:role="line"
           x="28.290285"
           y="839.0462"
           style="font-size:24px;fill:#ffffff" /></text>
      <text
         sodipodi:linespacing="125%"
         id="text4055"
         y="851.68848"
         x="25.714287"
         style="font-size:40px;font-style:normal;font-variant:normal;font-weight:600;font-stretch:normal;line-height:125%;letter-spacing:0px;word-spacing:0px;fill:#ffffff;fill-opacity:1;stroke:none;font-family:Flux;-inkscape-font-specification:Flux Semi-Bold"
         xml:space="preserve"><tspan
           y="851.68848"
           x="25.714287"
           id="tspan4057"
           sodipodi:role="line">http://www.python.org.ve</tspan></text>
    </g>
    <flowRoot
       xml:space="preserve"
       id="flowRoot4080"
       style="fill:black;stroke:none;stroke-opacity:1;stroke-width:1px;stroke-linejoin:miter;stroke-linecap:butt;fill-opacity:1;font-family:Flux;font-style:normal;font-weight:600;font-size:40px;line-height:125%;letter-spacing:0px;word-spacing:0px;-inkscape-font-specification:Flux Semi-Bold;font-stretch:normal;font-variant:normal"><flowRegion
         id="flowRegion4082"><rect
           id="rect4084"
           width="898.02563"
           height="333.35034"
           x="-68.690376"
           y="-8.2979898" /></flowRegion><flowPara
         id="flowPara4086" /></flowRoot>    <g
       id="g3111"
       transform="translate(1217.7138,225.07747)">
      <path
         id="path3113"
         d="m 124.865,102.207 c 0,-0.543 -0.19,-1.086 -0.57,-1.629 -3.042,-3.641 -5.486,-6.764 -7.333,-9.37 1.14,-2.226 2.009,-4.29 2.606,-6.19 l 12.629,-1.955 c 0.49,-0.055 0.924,-0.34 1.304,-0.855 0.38,-0.518 0.569,-1.046 0.569,-1.589 V 65.545 c 0,-0.597 -0.189,-1.127 -0.569,-1.588 -0.38,-0.461 -0.842,-0.747 -1.385,-0.854 l -12.384,-1.874 c -0.599,-1.847 -1.522,-4.075 -2.771,-6.681 0.814,-1.196 2.037,-2.826 3.667,-4.889 1.629,-2.064 2.771,-3.53 3.422,-4.399 0.38,-0.543 0.57,-1.06 0.57,-1.548 0,-1.467 -3.911,-5.812 -11.731,-13.036 -0.543,-0.434 -1.113,-0.651 -1.712,-0.651 -0.651,0 -1.194,0.188 -1.63,0.57 l -9.614,7.251 C 97.707,36.706 95.67,35.864 93.823,35.32 L 91.949,22.855 c -0.053,-0.543 -0.325,-1.019 -0.814,-1.426 -0.489,-0.407 -1.032,-0.611 -1.63,-0.611 H 74.352 c -1.249,0 -2.064,0.652 -2.444,1.955 -0.652,2.499 -1.276,6.682 -1.874,12.547 -2.335,0.76 -4.426,1.629 -6.273,2.607 l -9.369,-7.332 c -0.543,-0.381 -1.113,-0.57 -1.711,-0.57 -1.033,0 -3.178,1.602 -6.437,4.807 -3.259,3.204 -5.487,5.621 -6.681,7.251 -0.381,0.435 -0.57,0.978 -0.57,1.63 0,0.488 0.189,1.031 0.57,1.629 3.041,3.64 5.485,6.763 7.332,9.369 -1.14,2.228 -2.009,4.291 -2.606,6.192 L 31.66,62.857 c -0.489,0.054 -0.923,0.339 -1.304,0.854 -0.38,0.517 -0.57,1.046 -0.57,1.589 v 15.072 c 0,0.598 0.19,1.128 0.57,1.589 0.381,0.462 0.842,0.72 1.386,0.774 l 12.384,1.955 c 0.652,2.064 1.603,4.291 2.852,6.681 -0.869,1.196 -2.145,2.853 -3.829,4.97 -1.685,2.119 -2.798,3.559 -3.341,4.318 -0.38,0.543 -0.57,1.061 -0.57,1.548 0,1.468 3.911,5.812 11.732,13.036 0.543,0.434 1.113,0.65 1.711,0.65 0.706,0 1.249,-0.188 1.629,-0.569 l 9.614,-7.251 c 2.226,1.141 4.263,1.982 6.11,2.525 l 1.874,12.466 c 0.054,0.543 0.326,1.019 0.814,1.426 0.489,0.407 1.032,0.61 1.63,0.61 h 15.153 c 1.25,0 2.064,-0.651 2.444,-1.955 0.652,-2.554 1.276,-6.763 1.874,-12.629 2.172,-0.65 4.263,-1.494 6.273,-2.524 l 9.37,7.332 c 0.543,0.381 1.113,0.569 1.711,0.569 1.032,0 3.165,-1.615 6.396,-4.848 3.231,-3.23 5.472,-5.662 6.722,-7.292 0.38,-0.378 0.57,-0.894 0.57,-1.546 z M 96.675,87.706 c -4.073,4.073 -8.989,6.11 -14.746,6.11 -5.758,0 -10.674,-2.037 -14.747,-6.11 -4.073,-4.073 -6.11,-8.989 -6.11,-14.747 0,-5.757 2.037,-10.673 6.11,-14.746 4.073,-4.074 8.989,-6.11 14.747,-6.11 5.757,0 10.673,2.036 14.746,6.11 4.074,4.073 6.11,8.989 6.11,14.746 0,5.758 -2.036,10.674 -6.11,14.747 z"
         inkscape:connector-curvature="0" />
      <path
         id="path3115"
         d="m 174.074,106.445 c -0.705,-1.575 -1.52,-2.987 -2.443,-4.237 2.77,-6.138 4.154,-9.886 4.154,-11.243 0,-0.216 -0.107,-0.407 -0.325,-0.57 -6.519,-3.802 -9.886,-5.703 -10.103,-5.703 l -0.489,0.164 c -2.226,2.227 -4.726,5.269 -7.495,9.125 -1.086,-0.108 -1.9,-0.164 -2.443,-0.164 -0.545,0 -1.358,0.056 -2.445,0.164 -0.758,-1.142 -2.172,-2.975 -4.235,-5.5 -2.063,-2.525 -3.313,-3.789 -3.748,-3.789 -0.108,0 -0.923,0.435 -2.444,1.305 -1.521,0.869 -3.123,1.792 -4.807,2.771 -1.686,0.979 -2.634,1.521 -2.852,1.63 -0.219,0.162 -0.326,0.353 -0.326,0.569 0,1.358 1.385,5.104 4.154,11.243 -0.922,1.25 -1.737,2.662 -2.443,4.236 -8.094,0.814 -12.141,1.656 -12.141,2.525 v 11.406 c 0,0.869 4.047,1.711 12.141,2.525 0.65,1.466 1.466,2.879 2.443,4.235 -2.769,6.138 -4.154,9.886 -4.154,11.244 0,0.216 0.107,0.407 0.326,0.57 6.625,3.856 9.994,5.784 10.103,5.784 0.435,0 1.685,-1.276 3.748,-3.829 2.063,-2.554 3.476,-4.399 4.235,-5.54 1.086,0.107 1.9,0.162 2.445,0.162 0.543,0 1.357,-0.055 2.443,-0.162 0.759,1.141 2.172,2.986 4.236,5.54 2.063,2.553 3.312,3.829 3.748,3.829 0.108,0 3.477,-1.929 10.103,-5.784 0.218,-0.163 0.325,-0.353 0.325,-0.57 0,-1.358 -1.385,-5.106 -4.154,-11.244 0.977,-1.356 1.792,-2.769 2.443,-4.235 8.094,-0.814 12.141,-1.656 12.141,-2.525 v -11.406 c 0,-0.869 -4.047,-1.711 -12.141,-2.526 z m -11.773,15.602 c -2.035,2.037 -4.494,3.057 -7.373,3.057 -2.879,0 -5.337,-1.02 -7.373,-3.057 -2.037,-2.037 -3.056,-4.494 -3.056,-7.373 0,-2.824 1.033,-5.27 3.097,-7.333 2.064,-2.063 4.508,-3.096 7.332,-3.096 2.824,0 5.27,1.032 7.334,3.096 2.063,2.063 3.096,4.509 3.096,7.333 -0.001,2.879 -1.019,5.336 -3.057,7.373 z"
         inkscape:connector-curvature="0" />
      <path
         id="path3117"
         d="m 174.074,23.016 c -0.705,-1.575 -1.52,-2.987 -2.443,-4.237 2.77,-6.137 4.154,-9.885 4.154,-11.243 0,-0.216 -0.107,-0.407 -0.325,-0.57 -6.519,-3.802 -9.886,-5.703 -10.103,-5.703 l -0.489,0.163 c -2.226,2.228 -4.726,5.269 -7.495,9.125 -1.086,-0.108 -1.9,-0.163 -2.443,-0.163 -0.545,0 -1.358,0.055 -2.445,0.163 -0.758,-1.141 -2.172,-2.974 -4.235,-5.499 -2.063,-2.526 -3.313,-3.789 -3.748,-3.789 -0.108,0 -0.923,0.434 -2.444,1.304 -1.521,0.87 -3.123,1.793 -4.807,2.771 -1.686,0.978 -2.634,1.521 -2.852,1.629 -0.219,0.163 -0.326,0.353 -0.326,0.57 0,1.358 1.385,5.106 4.154,11.243 -0.922,1.25 -1.737,2.662 -2.443,4.237 -8.094,0.814 -12.141,1.656 -12.141,2.525 v 11.406 c 0,0.869 4.047,1.711 12.141,2.525 0.65,1.466 1.466,2.879 2.443,4.237 -2.769,6.138 -4.154,9.885 -4.154,11.243 0,0.216 0.107,0.407 0.326,0.57 6.625,3.856 9.994,5.784 10.103,5.784 0.435,0 1.685,-1.276 3.748,-3.829 2.063,-2.553 3.476,-4.399 4.235,-5.54 1.086,0.108 1.9,0.163 2.445,0.163 0.543,0 1.357,-0.055 2.443,-0.163 0.759,1.141 2.172,2.987 4.236,5.54 2.063,2.553 3.312,3.829 3.748,3.829 0.108,0 3.477,-1.928 10.103,-5.784 0.218,-0.163 0.325,-0.353 0.325,-0.57 0,-1.358 -1.385,-5.105 -4.154,-11.243 0.977,-1.358 1.792,-2.77 2.443,-4.237 8.094,-0.814 12.141,-1.656 12.141,-2.525 V 25.542 c 0,-0.869 -4.047,-1.711 -12.141,-2.526 z m -11.773,15.602 c -2.035,2.037 -4.494,3.056 -7.373,3.056 -2.879,0 -5.337,-1.019 -7.373,-3.056 -2.037,-2.036 -3.056,-4.494 -3.056,-7.373 0,-2.824 1.033,-5.269 3.097,-7.333 2.064,-2.064 4.508,-3.096 7.332,-3.096 2.824,0 5.27,1.033 7.334,3.096 2.063,2.064 3.096,4.509 3.096,7.333 -0.001,2.879 -1.019,5.337 -3.057,7.373 z"
         inkscape:connector-curvature="0" />
    </g>
    <g
       id="g3130"
       transform="translate(1043.4286,395.07747)">
      <path
         id="path3132"
         d="m 61.072,41.714 c 5.758,0 10.673,-2.036 14.746,-6.11 4.074,-4.074 6.111,-8.99 6.111,-14.747 0,-5.757 -2.037,-10.673 -6.111,-14.747 -4.073,-4.074 -8.988,-6.111 -14.746,-6.111 -5.758,0 -10.673,2.037 -14.747,6.111 -4.073,4.074 -6.11,8.989 -6.11,14.747 0,5.758 2.037,10.673 6.11,14.747 4.074,4.073 8.989,6.11 14.747,6.11 z"
         inkscape:connector-curvature="0" />
      <path
         id="path3134"
         d="m 85.88,74.264 c 6.11,6.109 13.483,9.165 22.12,9.165 8.637,0 16.01,-3.056 22.12,-9.165 6.11,-6.112 9.165,-13.485 9.165,-22.121 0,-8.636 -3.055,-16.009 -9.165,-22.12 -6.11,-6.111 -13.483,-9.166 -22.12,-9.166 -8.637,0 -16.01,3.056 -22.12,9.166 -6.11,6.11 -9.166,13.483 -9.166,22.12 0,8.637 3.056,16.01 9.166,22.121 z"
         inkscape:connector-curvature="0" />
      <path
         id="path3136"
         d="m 154.93,41.714 c 5.756,0 10.672,-2.036 14.746,-6.11 4.073,-4.074 6.109,-8.99 6.109,-14.747 0,-5.757 -2.036,-10.673 -6.109,-14.747 -4.074,-4.074 -8.99,-6.111 -14.746,-6.111 -5.759,0 -10.674,2.037 -14.748,6.111 -4.072,4.074 -6.109,8.989 -6.109,14.747 0,5.758 2.037,10.673 6.109,14.747 4.074,4.073 8.989,6.11 14.748,6.11 z"
         inkscape:connector-curvature="0" />
      <path
         id="path3138"
         d="m 176.111,41.715 c -0.325,0 -1.506,0.57 -3.543,1.711 -2.036,1.141 -4.685,2.295 -7.943,3.463 -3.258,1.167 -6.491,1.751 -9.695,1.751 -3.64,0 -7.25,-0.624 -10.836,-1.874 0.271,2.009 0.407,3.802 0.407,5.377 0,7.55 -2.2,14.502 -6.601,20.857 8.8,0.272 15.996,3.748 21.592,10.43 h 10.917 c 4.454,0 8.202,-1.102 11.243,-3.301 3.041,-2.199 4.562,-5.418 4.562,-9.654 0.001,-19.174 -3.366,-28.761 -10.103,-28.76 z"
         inkscape:connector-curvature="0" />
      <path
         id="path3140"
         d="m 163.934,107.585 c -0.57,-3.178 -1.291,-6.125 -2.16,-8.84 -0.869,-2.716 -2.037,-5.363 -3.502,-7.943 -1.467,-2.579 -3.151,-4.78 -5.053,-6.6 -1.902,-1.82 -4.224,-3.272 -6.966,-4.359 -2.743,-1.086 -5.772,-1.629 -9.084,-1.629 -0.544,0 -1.711,0.584 -3.504,1.752 -1.793,1.167 -3.774,2.472 -5.947,3.91 -2.173,1.438 -5.077,2.742 -8.718,3.91 -3.641,1.168 -7.307,1.752 -10.999,1.752 -3.693,0 -7.36,-0.584 -10.999,-1.752 -3.64,-1.168 -6.545,-2.472 -8.718,-3.91 -2.173,-1.438 -4.155,-2.743 -5.947,-3.91 -1.793,-1.168 -2.96,-1.752 -3.504,-1.752 -3.313,0 -6.341,0.543 -9.084,1.629 -2.743,1.087 -5.065,2.539 -6.966,4.359 -1.902,1.819 -3.585,4.021 -5.052,6.6 -1.466,2.58 -2.634,5.226 -3.503,7.943 -0.869,2.715 -1.588,5.662 -2.159,8.84 -0.571,3.178 -0.951,6.137 -1.141,8.881 -0.19,2.743 -0.285,5.554 -0.285,8.433 0,6.517 1.982,11.664 5.947,15.438 3.966,3.774 9.235,5.662 15.806,5.662 h 71.208 c 6.572,0 11.84,-1.888 15.807,-5.662 3.965,-3.774 5.947,-8.921 5.947,-15.438 0,-2.879 -0.096,-5.689 -0.283,-8.433 -0.192,-2.744 -0.572,-5.703 -1.141,-8.881 z"
         inkscape:connector-curvature="0" />
      <path
         id="path3142"
         d="m 78.099,73 c -4.4,-6.355 -6.599,-13.307 -6.598,-20.857 0,-1.575 0.136,-3.367 0.407,-5.377 -3.585,1.249 -7.197,1.874 -10.836,1.874 -3.205,0 -6.436,-0.584 -9.695,-1.751 -3.258,-1.168 -5.907,-2.322 -7.943,-3.463 -2.037,-1.141 -3.219,-1.711 -3.545,-1.711 -6.735,0 -10.103,9.587 -10.103,28.76 0,4.236 1.521,7.455 4.562,9.654 3.042,2.199 6.79,3.3 11.243,3.3 H 56.509 C 62.104,76.748 69.3,73.272 78.099,73 z"
         inkscape:connector-curvature="0" />
    </g>
    <g
       id="g3158"
       transform="translate(992.00003,162.2207)">
      <path
         id="path3160"
         d="m 121.159,93.486 c 8.825,-3.721 15.792,-8.786 20.897,-15.195 5.105,-6.409 7.658,-13.388 7.658,-20.938 0,-7.55 -2.553,-14.53 -7.66,-20.939 -5.104,-6.409 -12.07,-11.474 -20.896,-15.195 -8.826,-3.721 -18.426,-5.581 -28.801,-5.581 -10.374,0 -19.974,1.861 -28.801,5.581 C 54.73,24.94 47.764,30.005 42.659,36.414 37.553,42.824 35,49.803 35,57.353 c 0,6.463 1.931,12.549 5.787,18.252 3.856,5.702 9.152,10.51 15.887,14.42 -0.543,1.305 -1.1,2.498 -1.67,3.586 -0.571,1.086 -1.249,2.131 -2.037,3.137 -0.788,1.005 -1.398,1.792 -1.833,2.361 -0.435,0.57 -1.141,1.373 -2.119,2.403 -0.978,1.032 -1.603,1.711 -1.874,2.037 0,-0.056 -0.109,0.067 -0.326,0.366 -0.218,0.299 -0.34,0.434 -0.367,0.408 -0.027,-0.028 -0.136,0.107 -0.326,0.406 -0.19,0.299 -0.285,0.448 -0.285,0.448 l -0.204,0.407 c -0.081,0.163 -0.136,0.324 -0.163,0.488 -0.027,0.162 -0.041,0.34 -0.041,0.529 0,0.189 0.027,0.366 0.082,0.529 0.109,0.706 0.421,1.275 0.937,1.711 0.516,0.434 1.072,0.651 1.67,0.651 h 0.245 c 2.715,-0.38 5.051,-0.815 7.006,-1.304 8.365,-2.172 15.915,-5.649 22.65,-10.429 4.888,0.869 9.668,1.304 14.339,1.304 10.374,0.003 19.975,-1.857 28.801,-5.577 z"
         inkscape:connector-curvature="0" />
      <path
         id="path3162"
         d="M 175.215,96.5 C 179.072,90.824 181,84.729 181,78.21 c 0,-6.681 -2.039,-12.931 -6.111,-18.742 -4.074,-5.811 -9.615,-10.646 -16.621,-14.502 1.248,4.073 1.873,8.201 1.873,12.384 0,7.278 -1.818,14.176 -5.459,20.694 -3.639,6.517 -8.854,12.274 -15.643,17.272 -6.301,4.562 -13.471,8.065 -21.51,10.51 -8.037,2.443 -16.429,3.666 -25.174,3.666 -1.629,0 -4.019,-0.108 -7.169,-0.325 10.917,7.169 23.736,10.754 38.455,10.754 4.672,0 9.451,-0.435 14.34,-1.304 6.734,4.781 14.285,8.256 22.649,10.429 1.955,0.49 4.291,0.924 7.007,1.304 0.651,0.055 1.25,-0.135 1.793,-0.57 0.543,-0.435 0.896,-1.031 1.059,-1.791 -0.026,-0.326 0,-0.504 0.082,-0.53 0.08,-0.026 0.066,-0.203 -0.041,-0.529 -0.108,-0.326 -0.163,-0.489 -0.163,-0.489 l -0.203,-0.406 c -0.056,-0.108 -0.149,-0.258 -0.285,-0.448 -0.136,-0.188 -0.244,-0.325 -0.326,-0.407 -0.081,-0.081 -0.202,-0.217 -0.366,-0.406 -0.162,-0.189 -0.271,-0.312 -0.326,-0.367 -0.271,-0.325 -0.895,-1.004 -1.873,-2.036 -0.978,-1.032 -1.684,-1.833 -2.118,-2.403 -0.434,-0.57 -1.046,-1.357 -1.833,-2.363 -0.787,-1.004 -1.467,-2.05 -2.037,-3.137 -0.57,-1.086 -1.127,-2.281 -1.67,-3.584 6.734,-3.914 12.029,-8.707 15.885,-14.384 z"
         inkscape:connector-curvature="0" />
    </g>
    <g
       id="g3546"
       transform="translate(-30,20)">
      <flowRoot
         transform="matrix(0.84969268,0,0,0.84969268,209.41206,180.73216)"
         style="font-size:47.07584381px;font-style:normal;font-variant:normal;font-weight:normal;font-stretch:normal;text-align:start;line-height:125%;letter-spacing:0px;word-spacing:0px;writing-mode:lr-tb;text-anchor:start;fill:#ffffff;fill-opacity:1;stroke:none;font-family:FontAwesome;-inkscape-font-specification:FontAwesome"
         id="flowRoot3100"
         xml:space="preserve"><flowRegion
           id="flowRegion3102"><rect
             style="font-size:47.07584381px;font-style:normal;font-variant:normal;font-weight:normal;font-stretch:normal;text-align:start;line-height:125%;writing-mode:lr-tb;text-anchor:start;fill:#ffffff;font-family:FontAwesome;-inkscape-font-specification:FontAwesome"
             y="286.64789"
             x="102.85714"
             height="115.71429"
             width="195.71428"
             id="rect3104" /></flowRegion><flowPara
           style="font-size:47.07584381px;font-style:normal;font-variant:normal;font-weight:600;font-stretch:normal;fill:#ffffff;font-family:Flux;-inkscape-font-specification:Flux Semi-Bold"
           id="flowPara3108">Charlas</flowPara></flowRoot>      <g
         id="g3519">
        <path
           style="fill:#ffffff"
           id="path3197"
           d="m 236.17635,487.01943 c 5.64958,-2.3821 10.10971,-5.62461 13.37783,-9.72752 3.26811,-4.10291 4.90249,-8.57073 4.90249,-13.40408 0,-4.83335 -1.63438,-9.30181 -4.90377,-13.40472 -3.26748,-4.10291 -7.72697,-7.34542 -13.37719,-9.72752 -5.65023,-2.38211 -11.79595,-3.57284 -18.43781,-3.57284 -6.64122,0 -12.78694,1.19137 -18.43781,3.57284 -5.65022,2.3821 -10.10971,5.62461 -13.37783,9.72752 -3.26875,4.10355 -4.90313,8.57137 -4.90313,13.40472 0,4.13748 1.23619,8.03361 3.70472,11.68456 2.46853,3.6503 5.85892,6.72828 10.17053,9.23138 -0.34762,0.83544 -0.7042,1.59917 -1.0691,2.29569 -0.36554,0.69523 -0.79959,1.36422 -1.30405,2.00824 -0.50446,0.64338 -0.89497,1.1472 -1.17345,1.51146 -0.27847,0.3649 -0.73044,0.87897 -1.35654,1.53835 -0.62609,0.66067 -1.0262,1.09535 -1.19969,1.30405 0,-0.0359 -0.0698,0.0429 -0.2087,0.2343 -0.13956,0.19142 -0.21766,0.27784 -0.23495,0.2612 -0.0173,-0.0179 -0.0871,0.0685 -0.20869,0.25991 -0.12164,0.19141 -0.18246,0.2868 -0.18246,0.2868 l -0.13059,0.26055 c -0.0519,0.10435 -0.0871,0.20742 -0.10435,0.31241 -0.0173,0.10371 -0.0263,0.21766 -0.0263,0.33866 0,0.12099 0.0173,0.2343 0.0525,0.33865 0.0698,0.45197 0.26951,0.81623 0.59984,1.09535 0.33034,0.27784 0.68628,0.41676 1.0691,0.41676 h 0.15685 c 1.73808,-0.24327 3.23354,-0.52175 4.48509,-0.8348 5.35511,-1.39047 10.18846,-3.61637 14.50007,-6.67643 3.1292,0.55632 6.18925,0.83479 9.17953,0.83479 6.64122,0.002 12.78758,-1.18881 18.43781,-3.57028 z"
           inkscape:connector-curvature="0" />
        <path
           style="fill:#ffffff"
           id="path3199"
           d="m 270.78189,488.94893 c 2.46917,-3.63365 3.70344,-7.53555 3.70344,-11.70888 0,-4.27704 -1.30533,-8.27816 -3.91214,-11.99824 -2.60809,-3.72008 -6.15533,-6.81535 -10.64042,-9.28388 0.79894,2.60745 1.19905,5.25011 1.19905,7.92798 0,4.65923 -1.16384,9.07518 -3.49474,13.24787 -2.32961,4.17205 -5.66815,7.85756 -10.01432,11.05718 -4.03377,2.9205 -8.62386,5.16305 -13.77026,6.72829 -5.14512,1.56396 -10.51751,2.3469 -16.11588,2.3469 -1.04285,0 -2.57288,-0.0691 -4.58945,-0.20806 6.98884,4.58944 15.1953,6.88449 24.6181,6.88449 2.99092,0 6.05034,-0.27848 9.18018,-0.8348 4.31096,3.0607 9.14496,5.28532 14.49942,6.67643 1.25155,0.31369 2.74701,0.59153 4.48574,0.8348 0.41675,0.0352 0.80022,-0.0864 1.14784,-0.3649 0.34762,-0.27848 0.5736,-0.66003 0.67795,-1.14657 -0.0166,-0.20869 0,-0.32265 0.0525,-0.33929 0.0512,-0.0167 0.0423,-0.12996 -0.0262,-0.33866 -0.0691,-0.20869 -0.10435,-0.31304 -0.10435,-0.31304 l -0.12996,-0.25992 c -0.0358,-0.0691 -0.0954,-0.16516 -0.18245,-0.2868 -0.0871,-0.12035 -0.1562,-0.20806 -0.2087,-0.26055 -0.0519,-0.0519 -0.12932,-0.13892 -0.2343,-0.25991 -0.10371,-0.121 -0.17349,-0.19974 -0.2087,-0.23495 -0.17349,-0.20806 -0.57296,-0.64274 -1.19906,-1.3034 -0.62609,-0.66067 -1.07806,-1.17345 -1.3559,-1.53836 -0.27784,-0.3649 -0.66963,-0.86872 -1.17345,-1.51274 -0.50382,-0.64274 -0.93914,-1.31237 -1.30404,-2.00824 -0.36491,-0.69524 -0.72149,-1.46025 -1.0691,-2.29441 4.31097,-2.50566 7.70072,-5.57404 10.16925,-9.20834 z"
           inkscape:connector-curvature="0" />
      </g>
      <g
         transform="translate(-29.294424,0)"
         id="g3528">
        <path
           style="fill:#ffffff"
           id="path3183"
           d="m 643.79872,505.55008 c 3.44042,0 6.37715,-1.21652 8.81078,-3.65074 2.43423,-2.43423 3.65134,-5.37156 3.65134,-8.81138 0,-3.43983 -1.21711,-6.37715 -3.65134,-8.81138 -2.43363,-2.43422 -5.37036,-3.65134 -8.81078,-3.65134 -3.44042,0 -6.37715,1.21712 -8.81137,3.65134 -2.43363,2.43423 -3.65075,5.37096 -3.65075,8.81138 0,3.44042 1.21712,6.37715 3.65075,8.81138 2.43422,2.43363 5.37095,3.65074 8.81137,3.65074 z"
           inkscape:connector-curvature="0" />
        <path
           style="fill:#ffffff"
           id="path3185"
           d="m 658.62158,524.9988 c 3.65074,3.65015 8.05613,5.47612 13.21676,5.47612 5.16063,0 9.56602,-1.82597 13.21677,-5.47612 3.65074,-3.65194 5.47611,-8.05733 5.47611,-13.21736 0,-5.16004 -1.82537,-9.56543 -5.47611,-13.21677 -3.65075,-3.65134 -8.05614,-5.47671 -13.21677,-5.47671 -5.16063,0 -9.56602,1.82597 -13.21676,5.47671 -3.65075,3.65074 -5.47672,8.05613 -5.47672,13.21677 0,5.16063 1.82597,9.56602 5.47672,13.21736 z"
           inkscape:connector-curvature="0" />
        <path
           style="fill:#ffffff"
           id="path3187"
           d="m 699.87916,505.55008 c 3.43922,0 6.37655,-1.21652 8.81077,-3.65074 2.43363,-2.43423 3.65015,-5.37156 3.65015,-8.81138 0,-3.43983 -1.21652,-6.37715 -3.65015,-8.81138 -2.43422,-2.43422 -5.37155,-3.65134 -8.81077,-3.65134 -3.44102,0 -6.37775,1.21712 -8.81198,3.65134 -2.43303,2.43423 -3.65014,5.37096 -3.65014,8.81138 0,3.44042 1.21711,6.37715 3.65014,8.81138 2.43423,2.43363 5.37096,3.65074 8.81198,3.65074 z"
           inkscape:connector-curvature="0" />
        <path
           style="fill:#ffffff"
           id="path3189"
           d="m 712.53487,505.55068 c -0.19419,0 -0.89984,0.34057 -2.11696,1.02232 -1.21651,0.68175 -2.7993,1.37127 -4.74596,2.06916 -1.94667,0.69728 -3.8784,1.04622 -5.79279,1.04622 -2.17492,0 -4.3319,-0.37284 -6.47455,-1.11972 0.16193,1.20039 0.24319,2.27171 0.24319,3.21278 0,4.51114 -1.31451,8.66499 -3.94412,12.46212 5.25803,0.16252 9.55766,2.23944 12.90128,6.23195 h 6.52294 c 2.66128,0 4.90072,-0.65845 6.71773,-1.97235 1.81701,-1.31391 2.72581,-3.23728 2.72581,-5.7683 6e-4,-11.45652 -2.0112,-17.18478 -6.03657,-17.18418 z"
           inkscape:connector-curvature="0" />
        <path
           style="fill:#ffffff"
           id="path3191"
           d="m 705.25907,544.9082 c -0.34057,-1.89887 -0.77137,-3.65971 -1.2906,-5.28193 -0.51923,-1.62282 -1.21712,-3.20441 -2.09246,-4.74597 -0.87654,-1.54096 -1.88273,-2.85606 -3.01918,-3.94351 -1.13645,-1.08746 -2.52385,-1.95503 -4.16221,-2.60452 -1.63895,-0.64889 -3.44879,-0.97333 -5.42772,-0.97333 -0.32504,0 -1.02232,0.34894 -2.09365,1.04682 -1.07132,0.69729 -2.25497,1.47703 -3.55335,2.33624 -1.29837,0.85921 -3.03352,1.63835 -5.20903,2.33624 -2.1755,0.69788 -4.36595,1.04682 -6.57193,1.04682 -2.20658,0 -4.39762,-0.34894 -6.57194,-1.04682 -2.17491,-0.69789 -3.91065,-1.47703 -5.20903,-2.33624 -1.29837,-0.85921 -2.48262,-1.63895 -3.55335,-2.33624 -1.07132,-0.69788 -1.76861,-1.04682 -2.09365,-1.04682 -1.97953,0 -3.78876,0.32444 -5.42772,0.97333 -1.63895,0.64949 -3.02635,1.51706 -4.1622,2.60452 -1.13645,1.08685 -2.14205,2.40255 -3.01859,3.94351 -0.87594,1.54156 -1.57382,3.12256 -2.09305,4.74597 -0.51923,1.62222 -0.94883,3.38306 -1.29001,5.28193 -0.34117,1.89886 -0.56822,3.66687 -0.68175,5.30642 -0.11352,1.63895 -0.17029,3.31853 -0.17029,5.03874 0,3.89393 1.18425,6.96928 3.55335,9.22425 2.3697,2.25498 5.51794,3.38307 9.44414,3.38307 h 42.54699 c 3.92679,0 7.07443,-1.12809 9.44473,-3.38307 2.3691,-2.25497 3.55335,-5.33032 3.55335,-9.22425 0,-1.72021 -0.0574,-3.39919 -0.1691,-5.03874 -0.11472,-1.63955 -0.34177,-3.40756 -0.68175,-5.30642 z"
           inkscape:connector-curvature="0" />
        <path
           style="fill:#ffffff"
           id="path3193"
           d="m 653.9724,524.24356 c -2.62901,-3.79713 -3.94292,-7.95098 -3.94232,-12.46212 0,-0.94107 0.0813,-2.0118 0.24318,-3.21278 -2.14204,0.74629 -4.30023,1.11972 -6.47454,1.11972 -1.915,0 -3.84553,-0.34894 -5.79279,-1.04622 -1.94666,-0.69789 -3.52945,-1.38741 -4.74597,-2.06916 -1.21711,-0.68175 -1.92336,-1.02232 -2.11814,-1.02232 -4.02419,0 -6.03658,5.72826 -6.03658,17.18418 0,2.53102 0.90881,4.45439 2.72581,5.7683 1.81761,1.3139 4.05705,1.97176 6.71773,1.97176 h 6.52354 c 3.34302,-3.99192 7.64266,-6.06884 12.90008,-6.23136 z"
           inkscape:connector-curvature="0" />
      </g>
      <flowRoot
         transform="matrix(0.84969268,0,0,0.84969268,208.45206,253.59237)"
         xml:space="preserve"
         id="flowRoot3201"
         style="font-size:40px;font-style:normal;font-variant:normal;font-weight:normal;font-stretch:normal;text-align:start;line-height:125%;letter-spacing:0px;word-spacing:0px;writing-mode:lr-tb;text-anchor:start;fill:#ffffff;fill-opacity:1;stroke:none;font-family:FontAwesome;-inkscape-font-specification:FontAwesome"><flowRegion
           id="flowRegion3203"><rect
             id="rect3205"
             width="381.42859"
             height="112.85713"
             x="102.85714"
             y="286.64789"
             style="font-size:40px;font-style:normal;font-variant:normal;font-weight:normal;font-stretch:normal;text-align:start;line-height:125%;writing-mode:lr-tb;text-anchor:start;fill:#ffffff;font-family:FontAwesome;-inkscape-font-specification:FontAwesome" /></flowRegion><flowPara
           id="flowPara3207"
           style="font-size:47.07584381px;font-style:normal;font-variant:normal;font-weight:600;font-stretch:normal;fill:#ffffff;font-family:Flux;-inkscape-font-specification:Flux Semi-Bold">Panel de discusión</flowPara></flowRoot>      <g
         id="g3523">
        <path
           style="fill:#ffffff"
           id="path3175"
           d="m 242.50192,598.17498 c 0,-0.32445 -0.11352,-0.64889 -0.34057,-0.97333 -1.8176,-2.17549 -3.27788,-4.04148 -4.38146,-5.59857 0.68114,-1.33003 1.20037,-2.56327 1.55708,-3.69852 l 7.54582,-1.16811 c 0.29277,-0.0329 0.55208,-0.20315 0.77913,-0.51086 0.22705,-0.3095 0.33998,-0.62498 0.33998,-0.94943 v -9.0067 c 0,-0.35671 -0.11293,-0.67338 -0.33998,-0.94883 -0.22705,-0.27544 -0.50309,-0.44633 -0.82753,-0.51026 l -7.39943,-1.11971 c -0.3579,-1.10359 -0.9094,-2.43481 -1.65567,-3.9919 0.48636,-0.71461 1.2171,-1.68853 2.19103,-2.92117 0.97332,-1.23324 1.65567,-2.10917 2.04464,-2.6284 0.22705,-0.32444 0.34057,-0.63335 0.34057,-0.92493 0,-0.87653 -2.33682,-3.47266 -7.00926,-7.789 -0.32444,-0.25931 -0.66502,-0.38897 -1.02292,-0.38897 -0.38897,0 -0.71341,0.11233 -0.97392,0.34058 l -5.74436,4.33246 c -1.33003,-0.68115 -2.54714,-1.18424 -3.65072,-1.50928 l -1.11971,-7.44783 c -0.0317,-0.32444 -0.19419,-0.60885 -0.48636,-0.85203 -0.29218,-0.24318 -0.61662,-0.36507 -0.97393,-0.36507 h -9.0539 c -0.74628,0 -1.23324,0.38957 -1.46029,1.16811 -0.38957,1.49315 -0.76241,3.99249 -1.11971,7.49682 -1.39517,0.4541 -2.64454,0.97333 -3.74812,1.55768 l -5.59797,-4.38086 c -0.32444,-0.22765 -0.66501,-0.34058 -1.02232,-0.34058 -0.61721,0 -1.89885,0.9572 -3.8461,2.87218 -1.94725,1.91439 -3.27848,3.35854 -3.99189,4.33247 -0.22765,0.25991 -0.34058,0.58435 -0.34058,0.97392 0,0.29158 0.11293,0.61602 0.34058,0.97333 1.81699,2.17489 3.27728,4.04088 4.38086,5.59797 -0.68115,1.33122 -1.20037,2.56386 -1.55708,3.69971 l -7.54582,1.16751 c -0.29217,0.0323 -0.55149,0.20256 -0.77914,0.51027 -0.22705,0.30891 -0.34057,0.62498 -0.34057,0.94942 v 9.00551 c 0,0.35731 0.11352,0.67398 0.34057,0.94943 0.22765,0.27604 0.5031,0.4302 0.82814,0.46246 l 7.39943,1.16811 c 0.38957,1.23324 0.95779,2.56387 1.70407,3.99189 -0.51923,0.71461 -1.28164,1.70467 -2.28783,2.96958 -1.00679,1.2661 -1.6718,2.1265 -1.99624,2.58 -0.22705,0.32444 -0.34058,0.63394 -0.34058,0.92493 0,0.87712 2.33682,3.47266 7.00986,7.78899 0.32444,0.25932 0.66502,0.38838 1.02232,0.38838 0.42184,0 0.74628,-0.11233 0.97333,-0.33998 l 5.74436,-4.33246 c 1.33003,0.68174 2.54713,1.18424 3.65072,1.50868 l 1.11971,7.44843 c 0.0323,0.32444 0.19478,0.60885 0.48636,0.85203 0.29218,0.24318 0.61662,0.36447 0.97393,0.36447 h 9.0539 c 0.74688,0 1.23324,-0.38897 1.46029,-1.16811 0.38957,-1.52601 0.76241,-4.04088 1.11971,-7.54581 1.29777,-0.38838 2.54714,-0.89267 3.74811,-1.50809 l 5.59857,4.38086 c 0.32444,0.22765 0.66502,0.33998 1.02232,0.33998 0.61662,0 1.89109,-0.96496 3.82161,-2.89668 1.93052,-1.92992 3.26951,-3.38304 4.01639,-4.35696 0.22705,-0.22586 0.34057,-0.53416 0.34057,-0.92373 z m -16.8435,-8.66434 c -2.43361,2.43361 -5.37092,3.65072 -8.81072,3.65072 -3.4404,0 -6.37771,-1.21711 -8.81132,-3.65072 -2.43362,-2.43361 -3.65072,-5.37092 -3.65072,-8.81132 0,-3.4398 1.2171,-6.37711 3.65072,-8.81072 2.43361,-2.43421 5.37092,-3.65072 8.81132,-3.65072 3.4398,0 6.37711,1.21651 8.81072,3.65072 2.43421,2.43361 3.65072,5.37092 3.65072,8.81072 0,3.4404 -1.21651,6.37771 -3.65072,8.81132 z"
           inkscape:connector-curvature="0" />
        <path
           style="fill:#ffffff"
           id="path3177"
           d="m 271.90426,600.70718 c -0.42124,-0.94106 -0.9082,-1.78473 -1.45969,-2.53161 1.65507,-3.66745 2.48201,-5.90687 2.48201,-6.71768 0,-0.12906 -0.0639,-0.24318 -0.19419,-0.34057 -3.8951,-2.2717 -5.90688,-3.40754 -6.03653,-3.40754 l -0.29218,0.098 c -1.33003,1.33063 -2.82378,3.14822 -4.47826,5.45218 -0.64888,-0.0645 -1.13524,-0.098 -1.45969,-0.098 -0.32563,0 -0.8114,0.0335 -1.46088,0.098 -0.45291,-0.68235 -1.29777,-1.77756 -2.53041,-3.28625 -1.23264,-1.50868 -1.97952,-2.26392 -2.23943,-2.26392 -0.0645,0 -0.55149,0.25991 -1.46029,0.77973 -0.90879,0.51923 -1.86599,1.07072 -2.87217,1.65567 -1.00739,0.58496 -1.57382,0.9088 -1.70407,0.97393 -0.13085,0.0968 -0.19479,0.21092 -0.19479,0.33998 0,0.8114 0.82754,3.04963 2.48202,6.71768 -0.5509,0.74687 -1.03786,1.59054 -1.4597,2.531 -4.83615,0.48637 -7.25423,0.98946 -7.25423,1.50869 v 6.81508 c 0,0.51922 2.41808,1.02232 7.25423,1.50868 0.38838,0.87593 0.87594,1.7202 1.4597,2.53041 -1.65448,3.66745 -2.48202,5.90688 -2.48202,6.71828 0,0.12906 0.0639,0.24318 0.19479,0.34057 3.95843,2.30396 5.9714,3.45594 6.03653,3.45594 0.25991,0 1.00679,-0.76241 2.23943,-2.28782 1.23264,-1.52602 2.07691,-2.6284 2.53041,-3.31015 0.64888,0.0639 1.13525,0.0968 1.46088,0.0968 0.32445,0 0.81081,-0.0329 1.45969,-0.0968 0.45351,0.68175 1.29777,1.78413 2.53101,3.31015 1.23264,1.52541 1.97892,2.28782 2.23943,2.28782 0.0645,0 2.0775,-1.15258 6.03653,-3.45594 0.13026,-0.0974 0.19419,-0.21091 0.19419,-0.34057 0,-0.8114 -0.82754,-3.05083 -2.48201,-6.71828 0.58375,-0.81021 1.07072,-1.65448 1.45969,-2.53041 4.83616,-0.48636 7.25423,-0.98946 7.25423,-1.50868 v -6.81508 c 0,-0.51923 -2.41807,-1.02232 -7.25423,-1.50928 z m -7.03436,9.32218 c -1.21591,1.2171 -2.68516,1.82655 -4.40536,1.82655 -1.7202,0 -3.18885,-0.60945 -4.40536,-1.82655 -1.21711,-1.21711 -1.82596,-2.68516 -1.82596,-4.40536 0,-1.68734 0.61722,-3.14882 1.85045,-4.38146 1.23324,-1.23264 2.69353,-1.84986 4.38087,-1.84986 1.68734,0 3.14882,0.61662 4.38206,1.84986 1.23264,1.23264 1.84985,2.69412 1.84985,4.38146 -5.9e-4,1.7202 -0.60885,3.18825 -1.82655,4.40536 z"
           inkscape:connector-curvature="0" />
        <path
           style="fill:#ffffff"
           id="path3179"
           d="m 271.90426,550.85842 c -0.42124,-0.94106 -0.9082,-1.78473 -1.45969,-2.5316 1.65507,-3.66686 2.48201,-5.90628 2.48201,-6.71769 0,-0.12906 -0.0639,-0.24318 -0.19419,-0.34057 -3.8951,-2.27169 -5.90688,-3.40754 -6.03653,-3.40754 l -0.29218,0.0974 c -1.33003,1.33123 -2.82378,3.14823 -4.47826,5.45218 -0.64888,-0.0645 -1.13524,-0.0974 -1.45969,-0.0974 -0.32563,0 -0.8114,0.0329 -1.46088,0.0974 -0.45291,-0.68174 -1.29777,-1.77696 -2.53041,-3.28564 -1.23264,-1.50929 -1.97952,-2.26393 -2.23943,-2.26393 -0.0645,0 -0.55149,0.25932 -1.46029,0.77914 -0.90879,0.51982 -1.86599,1.07132 -2.87217,1.65567 -1.00739,0.58435 -1.57382,0.9088 -1.70407,0.97333 -0.13085,0.0974 -0.19479,0.21091 -0.19479,0.34057 0,0.8114 0.82754,3.05083 2.48202,6.71768 -0.5509,0.74688 -1.03786,1.59055 -1.4597,2.53161 -4.83615,0.48636 -7.25423,0.98946 -7.25423,1.50868 v 6.81508 c 0,0.51923 2.41808,1.02232 7.25423,1.50868 0.38838,0.87594 0.87594,1.7202 1.4597,2.53161 -1.65448,3.66745 -2.48202,5.90628 -2.48202,6.71768 0,0.12906 0.0639,0.24318 0.19479,0.34058 3.95843,2.30395 5.9714,3.45593 6.03653,3.45593 0.25991,0 1.00679,-0.76241 2.23943,-2.28782 1.23264,-1.52542 2.07691,-2.6284 2.53041,-3.31015 0.64888,0.0645 1.13525,0.0974 1.46088,0.0974 0.32445,0 0.81081,-0.0329 1.45969,-0.0974 0.45351,0.68175 1.29777,1.78473 2.53101,3.31015 1.23264,1.52541 1.97892,2.28782 2.23943,2.28782 0.0645,0 2.0775,-1.15198 6.03653,-3.45593 0.13026,-0.0974 0.19419,-0.21092 0.19419,-0.34058 0,-0.8114 -0.82754,-3.05023 -2.48201,-6.71768 0.58375,-0.81141 1.07072,-1.65507 1.45969,-2.53161 4.83616,-0.48636 7.25423,-0.98945 7.25423,-1.50868 v -6.81508 c 0,-0.51922 -2.41807,-1.02232 -7.25423,-1.50928 z m -7.03436,9.32218 c -1.21591,1.21711 -2.68516,1.82596 -4.40536,1.82596 -1.7202,0 -3.18885,-0.60885 -4.40536,-1.82596 -1.21711,-1.21651 -1.82596,-2.68516 -1.82596,-4.40536 0,-1.68734 0.61722,-3.14822 1.85045,-4.38146 1.23324,-1.23324 2.69353,-1.84986 4.38087,-1.84986 1.68734,0 3.14882,0.61722 4.38206,1.84986 1.23264,1.23324 1.84985,2.69412 1.84985,4.38146 -5.9e-4,1.7202 -0.60885,3.18885 -1.82655,4.40536 z"
           inkscape:connector-curvature="0" />
      </g>
      <flowRoot
         transform="matrix(0.84969268,0,0,0.84969268,211.89206,329.09484)"
         xml:space="preserve"
         id="flowRoot3209"
         style="font-size:40px;font-style:normal;font-variant:normal;font-weight:normal;font-stretch:normal;text-align:start;line-height:125%;letter-spacing:0px;word-spacing:0px;writing-mode:lr-tb;text-anchor:start;fill:#ffffff;fill-opacity:1;stroke:none;font-family:FontAwesome;-inkscape-font-specification:FontAwesome"><flowRegion
           id="flowRegion3211"><rect
             id="rect3213"
             width="280"
             height="67.142868"
             x="102.85714"
             y="286.64789"
             style="font-size:40px;font-style:normal;font-variant:normal;font-weight:normal;font-stretch:normal;text-align:start;line-height:125%;writing-mode:lr-tb;text-anchor:start;fill:#ffffff;font-family:FontAwesome;-inkscape-font-specification:FontAwesome" /></flowRegion><flowPara
           id="flowPara3215"
           style="font-size:47.07584381px;font-style:normal;font-variant:normal;font-weight:600;font-stretch:normal;fill:#ffffff;font-family:Flux;-inkscape-font-specification:Flux Semi-Bold">Taller Django</flowPara></flowRoot>    </g>
    <flowRoot
       transform="matrix(3.1627239,0,0,3.1627239,-127.80447,-242.17638)"
       style="font-size:40px;font-style:normal;font-variant:normal;font-weight:600;font-stretch:normal;text-align:start;line-height:125%;letter-spacing:0px;word-spacing:0px;writing-mode:lr-tb;text-anchor:start;fill:#ffffff;fill-opacity:1;stroke:none;font-family:Flux;-inkscape-font-specification:Flux Semi-Bold"
       id="flowRoot3322"
       xml:space="preserve"><flowRegion
         id="flowRegion3324"><rect
           style="font-size:40px;font-style:normal;font-variant:normal;font-weight:600;font-stretch:normal;text-align:start;line-height:125%;writing-mode:lr-tb;text-anchor:start;fill:#ffffff;font-family:Flux;-inkscape-font-specification:Flux Semi-Bold"
           y="135.14368"
           x="54.548237"
           height="143.44167"
           width="252.53813"
           id="rect3326" /></flowRegion><flowPara
         style="font-size:21.18427086px;line-height:100%;fill:#999999"
         id="flowPara3328">4to Día Python de Mérida</flowPara></flowRoot>    <text
       xml:space="preserve"
       style="font-size:40px;font-style:normal;font-variant:normal;font-weight:600;font-stretch:normal;line-height:125%;letter-spacing:0px;word-spacing:0px;fill:#000000;fill-opacity:1;stroke:none;font-family:Flux;-inkscape-font-specification:Flux Semi-Bold"
       x="-420"
       y="989.50507"
       id="text3431"
       sodipodi:linespacing="125%"><tspan
         sodipodi:role="line"
         id="tspan3433"
         x="-420"
         y="989.50507" /></text>
    <text
       xml:space="preserve"
       style="font-size:40px;font-style:normal;font-variant:normal;font-weight:600;font-stretch:normal;line-height:125%;letter-spacing:0px;word-spacing:0px;fill:#000000;fill-opacity:1;stroke:none;font-family:Flux;-inkscape-font-specification:Flux Semi-Bold"
       x="1055.7142"
       y="625.2193"
       id="text3449"
       sodipodi:linespacing="125%"><tspan
         sodipodi:role="line"
         id="tspan3451"
         x="1055.7142"
         y="625.2193"
         style="font-size:20px;font-style:normal;font-variant:normal;font-weight:600;font-stretch:normal;font-family:FreeSans;-inkscape-font-specification:FreeSans Semi-Bold">Fuentes tipográficas</tspan><tspan
         sodipodi:role="line"
         x="1055.7142"
         y="645.2193"
         style="font-size:16px;font-style:normal;font-variant:normal;font-weight:600;font-stretch:normal;font-family:FreeSans;-inkscape-font-specification:FreeSans Semi-Bold"
         id="tspan3574">Logo PyVe: 04b_03</tspan><tspan
         sodipodi:role="line"
         x="1055.7142"
         y="665.2193"
         style="font-size:16px;font-style:normal;font-variant:normal;font-weight:600;font-stretch:normal;font-family:FreeSans;-inkscape-font-specification:FreeSans Semi-Bold"
         id="tspan3578">Documento: flux</tspan><tspan
         sodipodi:role="line"
         x="1055.7142"
         y="685.2193"
         style="font-size:16px;font-style:normal;font-variant:normal;font-weight:600;font-stretch:normal;font-family:FreeSans;-inkscape-font-specification:FreeSans Semi-Bold"
         id="tspan3589">Iconos: fontawesome-webfont</tspan><tspan
         sodipodi:role="line"
         x="1055.7142"
         y="705.2193"
         style="font-size:16px;font-style:normal;font-variant:normal;font-weight:600;font-stretch:normal;font-family:FreeSans;-inkscape-font-specification:FreeSans Semi-Bold"
         id="tspan3576" /></text>
    <flowRoot
       xml:space="preserve"
       id="flowRoot3536"
       style="fill:black;stroke:none;stroke-opacity:1;stroke-width:1px;stroke-linejoin:miter;stroke-linecap:butt;fill-opacity:1;font-family:Flux;font-style:normal;font-weight:600;font-size:40px;line-height:125%;letter-spacing:0px;word-spacing:0px;-inkscape-font-specification:Flux Semi-Bold;font-stretch:normal;font-variant:normal"><flowRegion
         id="flowRegion3538"><rect
           id="rect3540"
           width="685.89355"
           height="336.3808"
           x="-104.04572"
           y="344.24524" /></flowRegion><flowPara
         id="flowPara3542"></flowPara></flowRoot>  </g>
</svg>
